<svg xmlns="http://www.w3.org/2000/svg" xmlns:xlink="http://www.w3.org/1999/xlink" width="240" height="384">
<defs>




 <path fill="#5d6b82" id="i-2153" d="M17.816,2C17.401,0.838,16.302,0,15,0c-1.654,0-3,1.346-3,3s1.346,3,3,3c1.302,0,2.401-0.838,2.816-2H48V2H17.816z M15,4 c-0.551,0-1-0.449-1-1s0.449-1,1-1s1,0.449,1,1S15.551,4,15,4z M45,5c-1.302,0-2.401,0.838-2.815,2H12v2h30.185 c0.414,1.162,1.514,2,2.815,2c1.654,0,3-1.346,3-3S46.654,5,45,5z M45,9c-0.552,0-1-0.449-1-1s0.448-1,1-1s1,0.449,1,1 S45.552,9,45,9z M40,26h-2v-6h-8v6h-2V16h-8v10h-2V12h-8v14H8V8H0v40h8v-2h2v2h8v-2h2v2h8v-2h2v2h8v-2h2v2h8V24h-8V26z M6,46H2V10h4 V46z M10,44H8v-2h2V44z M10,40H8v-8h2V40z M10,30H8v-2h2V30z M16,46h-4V14h4V46z M20,44h-2v-2h2V44z M20,40h-2v-8h2V40z M20,30h-2 v-2h2V30z M26,46h-4V18h4V46z M30,44h-2v-2h2V44z M30,40h-2v-8h2V40z M30,30h-2v-2h2V30z M36,46h-4V22h4V46z M40,44h-2v-2h2V44z M40,40h-2v-8h2V40z M40,30h-2v-2h2V30z M42,26h4v20h-4V26z"/> 
 <path fill="#5d6b82" id="i-2154" d="M48,6h-2V0h-8v6h-1V0h-8v6h-1V0h-8v6h-1V0h-8v6h-1V0H2v6H0v8h2v34h8V14h1v29h8V14h1v24h8V14h1v19h8V14h1v13.289h8V14h2V6z M40,2h4v4h-4V2z M31,2h4v4h-4V2z M22,2h4v4h-4V2z M13,2h4v4h-4V2z M4,2h4v4H4V2z M8,46H4V14h4V46z M17,41h-4V14h4V41z M26,36h-4V14 h4V36z M35,31h-4V14h4V31z M44,25.289h-4V14h4V25.289z M46,12H2V8h44V12z M5,10c0-0.553,0.448-1,1-1s1,0.447,1,1s-0.448,1-1,1 S5,10.553,5,10z M23,10c0-0.553,0.448-1,1-1c0.553,0,1,0.447,1,1s-0.447,1-1,1C23.448,11,23,10.553,23,10z M14,10 c0-0.553,0.448-1,1-1s1,0.447,1,1s-0.448,1-1,1S14,10.553,14,10z M32,10c0-0.553,0.447-1,1-1s1,0.447,1,1s-0.447,1-1,1 S32,10.553,32,10z M41,10c0-0.553,0.447-1,1-1s1,0.447,1,1s-0.447,1-1,1S41,10.553,41,10z"/> 
 <path fill="#5d6b82" id="i-2155" d="M48,27v-3c0-1.654-1.346-3-3-3h-7.661c0.134-0.084,0.257-0.182,0.368-0.293c0.575-0.574,0.793-1.379,0.598-2.205 c-0.341-1.441-1.831-2.731-3.988-3.451c-1.338-0.445-1.338-0.445-3.452-2.09c-0.771-0.601-1.847-1.436-3.359-2.584 c2.637-1.668,5.927-3.796,10.05-6.545C37.833,3.646,38,3.334,38,3c0-1.654-1.346-3-3-3c-0.208,0-0.412,0.064-0.581,0.186 C29.968,3.365,26.592,5.83,24,7.751c-2.591-1.921-5.968-4.386-10.419-7.565C13.412,0.064,13.208,0,13,0c-1.654,0-3,1.346-3,3 c0,0.334,0.167,0.646,0.445,0.832c4.124,2.749,7.413,4.877,10.05,6.545c-1.513,1.148-2.588,1.983-3.359,2.584 c-2.115,1.645-2.115,1.645-3.453,2.09c-2.157,0.72-3.648,2.01-3.988,3.451c-0.195,0.826,0.023,1.631,0.598,2.205 c0.111,0.111,0.235,0.209,0.368,0.293H3c-1.654,0-3,1.346-3,3v3h2v15H0v3c0,1.654,1.346,3,3,3h42c1.654,0,3-1.346,3-3v-3h-2V27H48z M33.684,16.949c1.885,0.627,2.567,1.561,2.675,2.013c0.051,0.215-0.025,0.29-0.065,0.331c-0.028,0.028-0.14,0.082-0.355,0.082 c-0.866,0-2.362-0.83-2.984-2.678C33.163,16.773,33.4,16.854,33.684,16.949z M35.27,2.037c0.269,0.074,0.491,0.26,0.618,0.502 c-4.187,2.785-7.481,4.908-10.091,6.551c-0.041-0.03-0.08-0.061-0.121-0.091C28.129,7.185,31.251,4.909,35.27,2.037z M12.112,2.539 c0.127-0.242,0.35-0.428,0.619-0.502c4.019,2.872,7.14,5.147,9.594,6.962c-0.041,0.03-0.081,0.061-0.122,0.091 C19.594,7.447,16.299,5.324,12.112,2.539z M11.642,18.962c0.106-0.452,0.79-1.386,2.674-2.013c0.283-0.095,0.52-0.176,0.73-0.252 c-0.622,1.847-2.118,2.678-2.984,2.678c-0.216,0-0.327-0.054-0.355-0.082C11.667,19.252,11.591,19.177,11.642,18.962z M16.948,17.317c0.236-0.704,0.236-0.704,2.448-1.999c1.018-0.596,2.497-1.463,4.604-2.756c2.106,1.293,3.586,2.16,4.604,2.756 c2.213,1.295,2.213,1.295,2.448,1.998c0.626,1.879,1.927,3.111,3.254,3.684H13.694C15.022,20.428,16.322,19.195,16.948,17.317z M46,45c0,0.551-0.448,1-1,1H3c-0.551,0-1-0.449-1-1v-1h44V45z M15,29v-2h18v2h-2v11h2v2H15v-2h2V29H15z M35,29v-2h9v15h-9v-2h2V29 H35z M35,38h-2v-7h2V38z M15,38h-2v-7h2V38z M13,29h-2v11h2v2H4V27h9V29z M2,25v-1c0-0.551,0.449-1,1-1h42c0.552,0,1,0.449,1,1v1H2z "/> 
 <path fill="#5d6b82" id="i-2156" d="M38.119,3l-0.125-0.247C37.936,1.431,37.389,0,36,0H12c-1.389,0-1.935,1.431-1.995,2.753L9.882,3H8v7h2V9h0.018 c0.187,5.59,3.423,8.479,5.812,10.6c1.117,0.992,2.081,1.848,2.18,2.542c0.939,6.575-0.85,18.257-6.717,23.151 c-0.395,0.395-0.718,1.053-0.442,1.717C11.261,48,12.569,48,13,48h22c0.43,0,1.74,0,2.15-0.99c0.275-0.664-0.049-1.322-0.51-1.777 c-5.801-4.834-7.59-16.516-6.65-23.092c0.1-0.693,1.064-1.549,2.18-2.541c2.389-2.12,5.627-5.01,5.812-10.6H38v1h2V3H38.119z M12,3.236V3c0-0.315,0.075-0.781,0.172-1h23.656C35.92,2.208,35.998,2.648,36,3v0.236L36.383,4H30V3h-2v1h-8V3h-2v1h-6.382 L12,3.236z M28,6v1h-8V6H28z M10,7V6h8v1H10z M30.842,18.104c-1.41,1.254-2.629,2.335-2.832,3.755 c-0.961,6.737,0.824,18.544,6.5,24.142H13.482c5.694-5.666,7.468-17.424,6.508-24.142c-0.203-1.42-1.421-2.501-2.832-3.754 c-2.219-1.97-4.955-4.413-5.14-9.104H18v1h2V9h8v1h2V9h5.982C35.797,13.691,33.062,16.135,30.842,18.104z M38,7h-8V6h8V7z"/> 
 <path fill="#5d6b82" id="i-2157" d="M48,7c0-2.335-1.068-3.396-2.045-3.796C45.739,0.87,44.591,0,43.5,0h-12c-1.091,0-2.239,0.87-2.455,3.204 C28.068,3.604,27,4.665,27,7c0-2.335-1.068-3.396-2.045-3.796C24.739,0.87,23.59,0,22.5,0h-18C3.41,0,2.261,0.87,2.045,3.205 C1.068,3.604,0,4.665,0,7v1h1.915C1.668,11.035,1,19.494,1,22c0,9.088,5.824,23.752,6.071,24.371l0.142,0.354l0.341,0.17 C7.646,46.94,9.813,48,13,48c3.114,0,6.186-1.008,6.315-1.051l0.441-0.146l0.173-0.432C20.176,45.752,26,31.088,26,22 c0-2.506-0.668-10.965-0.915-14H27h0.894C27.631,10.623,27,17.111,27,18.977c0,6.982,4.88,17.968,5.087,18.432l0.138,0.309 l0.297,0.161C32.605,37.924,34.607,39,37.107,39c2.43,0,5.136-1.022,5.249-1.066l0.387-0.146l0.17-0.379 C43.12,36.944,48,25.959,48,18.977c0-1.865-0.631-8.354-0.894-10.977H48V7z M2.111,6C2.348,5.1,2.889,5.008,3,5h20.971 c0.133,0.008,0.679,0.1,0.917,1H2.111z M4.5,2h18.002c0.06,0.02,0.299,0.271,0.423,1H4.075C4.198,2.271,4.438,2.02,4.5,2z M24,22 c0,7.85-4.776,20.645-5.755,23.184C17.334,45.445,15.147,46,13,46c-2.025,0-3.573-0.502-4.221-0.755C7.856,42.858,3,29.916,3,22 c0-2.444,0.689-11.141,0.921-14H6v8.278C5.405,16.625,5,17.263,5,18c0,1.104,0.897,2,2,2s2-0.896,2-2c0-0.737-0.405-1.375-1-1.722V8 h11v8.278c-0.595,0.347-1,0.984-1,1.722c0,1.104,0.897,2,2,2s2-0.896,2-2c0-0.737-0.405-1.375-1-1.722V8h2.079 C23.311,10.859,24,19.556,24,22z M29.111,6C29.349,5.1,29.889,5.008,30,5h14.972c0.133,0.008,0.679,0.1,0.917,1H29.111z M31.5,2 h12.003c0.06,0.02,0.299,0.271,0.422,1h-12.85C31.198,2.271,31.438,2.02,31.5,2z M46,18.977c0,5.853-3.877,15.209-4.743,17.225 C40.483,36.461,38.685,37,37.107,37c-1.485,0-2.783-0.493-3.34-0.74C32.955,34.373,29,24.893,29,18.977 c0-1.802,0.658-8.529,0.903-10.977H31v6.212c-0.595,0.347-1,0.985-1,1.722c0,1.104,0.897,2,2,2s2-0.896,2-2 c0-0.736-0.405-1.375-1-1.722V8h8v6.212c-0.595,0.347-1,0.985-1,1.722c0,1.104,0.897,2,2,2s2-0.896,2-2c0-0.736-0.405-1.375-1-1.722 V8h2.097C45.342,10.447,46,17.175,46,18.977z"/> 
 <path fill="#5d6b82" id="i-2158" d="M47,26c0-2.757-2.243-5-5-5c-0.233,0-0.457,0.037-0.683,0.068c-1.201-2.087-2.76-3.942-4.604-5.471 C36.886,15.094,37,14.562,37,14c0-2.757-2.243-5-5-5c-1.789,0-3.35,0.953-4.233,2.369C26.539,11.133,25.276,11,23.981,11 c-1.283,0-2.534,0.133-3.75,0.365C19.347,9.951,17.787,9,16,9c-2.757,0-5,2.243-5,5c0,0.551,0.111,1.07,0.276,1.566 c-1.857,1.531-3.42,3.4-4.628,5.499C6.434,21.037,6.222,21,6,21c-2.757,0-5,2.243-5,5c0,2.047,1.239,3.805,3.003,4.578 C4,30.72,3.981,30.857,3.981,31c0,0.066,0.007,0.133,0.019,0.195c0.023,3.412,0.641,5.74,1.839,6.92C6.428,38.695,7.163,39,7.967,39 c0.016,0,0.032,0,0.048,0c1.188-0.018,2.6-1.232,4.785-3.229c0.618-0.566,1.416-1.295,1.898-1.65 c0.124,0.116,0.263,0.238,0.413,0.364V35c0,0.316,0.149,0.613,0.403,0.803C17.501,37.281,20.271,38,23.981,38 s6.479-0.719,8.467-2.197c0.254-0.189,0.403-0.486,0.403-0.803v-0.515c0.151-0.127,0.292-0.251,0.417-0.368 c0.5,0.359,1.341,1.118,1.991,1.705c2.179,1.967,3.583,3.161,4.727,3.178c0.753-0.006,1.44-0.285,2.017-0.854 C43.254,36.914,44,34.242,44,31c0-0.066-0.007-0.131-0.02-0.193c-0.001-0.072-0.012-0.141-0.013-0.213 C45.748,29.828,47,28.059,47,26z M4.176,28.365C3.466,27.815,3,26.965,3,26c0-1.533,1.16-2.787,2.646-2.965 C4.917,24.706,4.423,26.496,4.176,28.365z M40.325,23.512c0.782,1.701,1.316,3.539,1.534,5.475C40.271,28.91,39,27.606,39,26 C39,24.966,39.526,24.052,40.325,23.512z M32,11c1.654,0,3,1.346,3,3c0,0.105-0.021,0.204-0.031,0.307 c-1.561-1.031-3.271-1.855-5.096-2.42C30.417,11.34,31.169,11,32,11z M29.027,13.734c1.828,0.535,3.54,1.346,5.078,2.398 C33.563,16.668,32.82,17,32,17c-1.654,0-3-1.346-3-3C29,13.908,29.019,13.822,29.027,13.734z M19,14c0,1.654-1.346,3-3,3 c-0.829,0-1.58-0.338-2.123-0.883c1.544-1.052,3.26-1.861,5.095-2.395C18.98,13.815,19,13.904,19,14z M16,11 c0.827,0,1.578,0.336,2.121,0.88c-1.823,0.56-3.531,1.38-5.092,2.405C13.02,14.189,13,14.098,13,14C13,12.346,14.346,11,16,11z M7.639,23.493C8.457,24.029,9,24.951,9,26c0,1.623-1.297,2.94-2.907,2.99C6.31,27.046,6.851,25.201,7.639,23.493z M40.599,36.723 c-0.257,0.252-0.46,0.292-0.562,0.279c-0.586-0.092-2.44-1.766-3.437-2.664c-1.604-1.447-2.672-2.412-3.516-2.412 c-0.238,0-0.455,0.1-0.664,0.264c-0.039-0.028-0.075-0.061-0.119-0.083c-0.339-0.169-0.742-0.134-1.046,0.091 C29.647,33.394,27.2,34,23.981,34c-3.219,0-5.666-0.606-7.273-1.803c-0.304-0.227-0.709-0.26-1.046-0.091 c-0.043,0.022-0.079,0.054-0.118,0.081c-0.948-0.746-2.091,0.277-4.094,2.107C10.446,35.213,8.575,36.924,7.985,37 c-0.284,0.01-0.519-0.092-0.742-0.311C6.869,36.322,6,35.03,6,31c2.757,0,5-2.243,5-5c0-1.812-0.978-3.387-2.424-4.264 c1.002-1.66,2.259-3.147,3.725-4.402C13.217,18.35,14.528,19,16,19c2.757,0,5-2.243,5-5c0-0.247-0.038-0.484-0.073-0.721 C21.922,13.107,22.938,13,23.981,13c1.056,0,2.084,0.109,3.091,0.285C27.038,13.521,27,13.756,27,14c0,2.757,2.243,5,5,5 c1.462,0,2.767-0.643,3.682-1.646c1.461,1.255,2.711,2.741,3.71,4.399C37.963,22.636,37,24.201,37,26 c0,2.75,2.233,4.988,4.981,4.998V31c0,0.062,0.006,0.125,0.018,0.184C41.973,33.705,41.417,35.916,40.599,36.723z M43.795,28.389 c-0.248-1.878-0.744-3.678-1.477-5.356C43.821,23.193,45,24.455,45,26C45,26.979,44.522,27.842,43.795,28.389z"/> 
 <path fill="#5d6b82" id="i-2159" d="M48,24c0-2.638-2.061-4.783-4.652-4.965c-0.539-2.095-1.4-4.058-2.543-5.83C41.544,12.339,42,11.227,42,10 c0-2.757-2.243-5-5-5c-1.353,0-2.575,0.545-3.477,1.42c-1.422-0.773-2.956-1.357-4.559-1.77C28.781,2.059,26.637,0,24,0 s-4.78,2.059-4.964,4.648c-1.604,0.412-3.14,0.995-4.562,1.77C13.572,5.544,12.351,5,11,5c-2.757,0-5,2.243-5,5 c0,1.225,0.454,2.335,1.191,3.2c-1.144,1.773-2.005,3.739-2.543,5.835C2.058,19.221,0,21.363,0,24s2.058,4.779,4.647,4.965 c0.539,2.096,1.4,4.061,2.543,5.834C6.454,35.665,6,36.775,6,38c0,2.757,2.243,5,5,5c1.351,0,2.572-0.544,3.473-1.418 c1.423,0.774,2.958,1.357,4.562,1.77C19.22,45.941,21.363,48,24,48s4.781-2.059,4.965-4.65c1.603-0.412,3.137-0.996,4.559-1.771 C34.425,42.455,35.647,43,37,43c2.757,0,5-2.243,5-5c0-1.228-0.457-2.341-1.197-3.207c1.141-1.771,2.002-3.733,2.541-5.828 C45.938,28.785,48,26.639,48,24z M46,24c0,1.39-0.954,2.551-2.238,2.89c0.14-0.949,0.236-1.913,0.237-2.9 c-0.001-0.979-0.097-1.936-0.234-2.878C45.047,21.451,46,22.611,46,24z M37,7c1.654,0,3,1.346,3,3c0,0.549-0.165,1.051-0.426,1.491 c-1.217-1.513-2.646-2.845-4.245-3.95C35.808,7.211,36.375,7,37,7z M24,2c1.388,0,2.547,0.951,2.889,2.233 C25.942,4.096,24.982,4,23.998,4c-0.982,0-1.941,0.096-2.886,0.232C21.453,2.951,22.612,2,24,2z M8,10c0-1.654,1.346-3,3-3 c0.624,0,1.188,0.209,1.667,0.538c-1.6,1.104-3.028,2.436-4.245,3.946C8.163,11.047,8,10.547,8,10z M2,24 c0-1.387,0.951-2.546,2.231-2.888C4.094,22.058,3.999,23.017,3.999,24c0,0.982,0.095,1.942,0.233,2.888C2.951,26.546,2,25.387,2,24z M11,41c-1.654,0-3-1.346-3-3c0-0.547,0.163-1.047,0.422-1.484c1.217,1.511,2.646,2.842,4.245,3.946C12.188,40.791,11.624,41,11,41z M24,46c-1.388,0-2.547-0.951-2.888-2.232C22.057,43.904,23.016,44,23.998,44c0.984,0,1.944-0.096,2.891-0.233 C26.547,45.049,25.388,46,24,46z M40,38c0,1.654-1.346,3-3,3c-0.626,0-1.193-0.211-1.672-0.541c1.6-1.106,3.028-2.439,4.245-3.952 C39.835,36.947,40,37.45,40,38z M23.998,42c-9.925,0-18-8.074-18-18s8.075-18,18-18c9.916,0,17.991,8.07,18.001,18.009 C41.989,33.93,33.914,42,23.998,42z"/> 
 <path fill="#5d6b82" id="i-2160" d="M30,27c0-1.654-1.346-3-3-3s-3,1.346-3,3c0,1.579,1.23,2.863,2.781,2.979c-0.092,0.439-0.283,0.938-0.629,1.492 c-1.5,2.398-1.784,4.814-0.78,6.627c0.668,1.205,1.849,1.953,3.082,1.953C30.219,40.051,32,38.488,32,35 c0-2.889-1.19-5.145-2.334-6.654C29.873,27.939,30,27.486,30,27z M26,27c0-0.031,0.014-0.057,0.018-0.087 c-0.016,0.23,0.049,0.465,0.188,0.663C26.085,27.411,26,27.219,26,27z M27,26c0.044,0,0.082,0.02,0.124,0.025 c-0.059-0.008-0.118-0.018-0.178-0.015C26.965,26.01,26.981,26,27,26z M30,35c0,1.824-0.621,3.051-1.546,3.051 c-0.507,0-1.018-0.354-1.332-0.922c-0.304-0.549-0.841-2.092,0.726-4.6c0.444-0.709,0.716-1.389,0.86-2.022 C29.41,31.682,30,33.203,30,35z M36,27c0,2.24-0.82,4.29-2.18,5.87c-0.16-0.899-0.4-1.72-0.7-2.479C33.68,29.38,34,28.23,34,27 c0-3.859-3.14-7-7-7c-3.86,0-7,3.141-7,7c0,2.49,1.3,4.67,3.26,5.91c-0.23,0.699-0.38,1.39-0.44,2.061C19.96,33.46,18,30.45,18,27 c0-4.96,4.04-9,9-9S36,22.04,36,27z M37.057,10.91C33.693,5.568,27.765,2,21,2C10.523,2,2,10.523,2,21 c0,6.766,3.568,12.692,8.909,16.057C14.272,42.418,20.219,46,27,46c10.477,0,19-8.523,19-19C46,20.219,42.417,14.272,37.057,10.91z M4,21c0-9.374,7.626-17,17-17c4.676,0,8.904,1.91,11.978,4.979C31.096,8.352,29.09,8,27,8C16.523,8,8,16.523,8,27 c0,2.09,0.352,4.096,0.978,5.979C5.91,29.904,4,25.677,4,21z M27,44c-9.374,0-17-7.626-17-17s7.626-17,17-17s17,7.626,17,17 S36.374,44,27,44z"/> 
 <path fill="#5d6b82" id="i-2161" d="M39,16h-8c-3.859,0-7-3.141-7-7c0-4.963-4.038-9-9-9H9C4.038,0,0,4.037,0,9v38h2v1h44.002v-1H48V25 C48,20.037,43.963,16,39,16z M8,46H4V30h3v9h1V46z M14,46h-4v-7h1v-9h2v9h1V46z M20,46h-4v-7h1v-9h3V46z M26,46h-3.999V30H25v9h1V46 z M32,46h-4v-7h1v-9h2v9h1V46z M38,46h-4v-7h1v-9h2v9h1V46z M44.002,46H40v-7h1v-9h3.002V46z M46,28H2V9c0-3.859,3.14-7,7-7h6 c3.86,0,7,3.141,7,7c0,4.963,4.037,9,9,9h8c3.859,0,7,3.141,7,7V28z"/> 
 <path fill="#5d6b82" id="i-2162" d="M9,16H7v-2h2V16z M45,11H31v2h14V11z M9,17H7v2h2V17z M45,14H31v2h14V14z M5,11H3v2h2V11z M13,17h-2v2h2V17z M48,6v35 h-1.998v1H2v-1H0V6H48z M8,33H7v-9H4v16h4V33z M14,33h-1v-9h-2v9h-1v7h4V33z M20,24h-3v9h-1v7h4V24z M26,33h-1v-9h-2.999v16H26V33z M32,33h-1v-9h-2v9h-1v7h4V33z M38,33h-1v-9h-2v9h-1v7h4V33z M44.002,24H41v9h-1v7h4.002V24z M46,8H2v14h44V8z M5,17H3v2h2V17z M5,14H3v2h2V14z M17,17h-2v2h2V17z M13,11h-2v2h2V11z M13,14h-2v2h2V14z M17,14h-2v2h2V14z M9,11H7v2h2V11z M45,17H31v2h14V17z M17,11h-2v2h2V11z M29,19H19v-8h10V19z M27,13h-6v4h6V13z"/> 
 <path fill="#5d6b82" id="i-2163" d="M39.263,0.029L37.697,0l-2.845,1.896L32,0.945l-3,1l-3-1l-2.852,0.951L20.303,0H1v2H0v44.002h1V48h19.303l2.845-1.896 L26,47.055l3-1l3,1l2.853-0.951L37.697,48h1.479L48,45.779V2.22L39.263,0.029z M12,44.002H2V40h4v1h6V44.002z M12,37H6v1H2v-4h4v1h6 V37z M12,31H6v1H2v-4h4v1h6V31z M12,25H6v1H2v-4h10V25z M12,20H2v-4h4v1h6V20z M12,13H6v1H2v-4h4v1h6V13z M12,7H6v1H2V4h10V7z M19,46h-5V2h5V46z M22,44.465l-1,0.666V2.869l1,0.666V44.465z M25,44.612l-1-0.333V3.721l1-0.333V44.612z M28,44.279l-1,0.333 V3.388l1,0.333V44.279z M31,44.612l-1-0.333V3.721l1-0.333V44.612z M34,44.279l-1,0.333V3.388l1,0.333V44.279z M37,45.131l-1-0.666 V3.535l1-0.666V45.131z M46,44.221l-7,1.762V2.025l7,1.755V44.221z M45,28c0,0.553-0.447,1-1,1s-1-0.447-1-1s0.447-1,1-1 S45,27.447,45,28z M41,26c0-0.553,0.447-1,1-1s1,0.447,1,1s-0.447,1-1,1S41,26.553,41,26z M45,24c0,0.553-0.447,1-1,1s-1-0.447-1-1 s0.447-1,1-1S45,23.447,45,24z M45,20c0,0.553-0.447,1-1,1s-1-0.447-1-1s0.447-1,1-1S45,19.447,45,20z M41,18c0-0.553,0.447-1,1-1 s1,0.447,1,1s-0.447,1-1,1S41,18.553,41,18z M41,22c0-0.553,0.447-1,1-1s1,0.447,1,1s-0.447,1-1,1S41,22.553,41,22z M45,16 c0,0.553-0.447,1-1,1s-1-0.447-1-1s0.447-1,1-1S45,15.447,45,16z M41,14c0-0.553,0.447-1,1-1s1,0.447,1,1s-0.447,1-1,1 S41,14.553,41,14z M43,12c0-0.553,0.447-1,1-1s1,0.447,1,1s-0.447,1-1,1S43,12.553,43,12z M41,10c0-0.553,0.447-1,1-1s1,0.447,1,1 s-0.447,1-1,1S41,10.553,41,10z M41,38c0-0.553,0.447-1,1-1s1,0.447,1,1s-0.447,1-1,1S41,38.553,41,38z M45,36c0,0.553-0.447,1-1,1 s-1-0.447-1-1s0.447-1,1-1S45,35.447,45,36z M45,32c0,0.553-0.447,1-1,1s-1-0.447-1-1s0.447-1,1-1S45,31.447,45,32z M41,30 c0-0.553,0.447-1,1-1s1,0.447,1,1s-0.447,1-1,1S41,30.553,41,30z M41,34c0-0.553,0.447-1,1-1s1,0.447,1,1s-0.447,1-1,1 S41,34.553,41,34z"/> 
 <path fill="#5d6b82" id="i-2164" d="M40.009,0c-2.853,0-5.202,0.92-6.615,2.592C32.223,3.975,31.722,5.793,31.886,8H16.114c0.163-2.207-0.338-4.025-1.508-5.408 C13.192,0.92,10.843,0,7.99,0C3.514,0,0.004,3.514,0,8.002l0.001,1.11h1.001L1.886,9.04l0.119-0.864C2.219,6.617,3.022,4,5.99,4 c1.746,0,3.996,0.275,4.806,1.585c0.639,1.034,0.393,2.798-0.692,4.968C3.781,23.199,3.366,24.374,2.02,29.758 c-1.414,5.656-0.993,9.826,1.288,12.748c2.199,2.815,6.146,4.303,11.701,4.463V48h18v-1.032c5.545-0.162,9.486-1.649,11.682-4.462 c2.281-2.922,2.703-7.092,1.288-12.748c-1.346-5.385-1.761-6.559-8.084-19.205c-1.085-2.17-1.331-3.934-0.691-4.968 C38.013,4.275,40.264,4,42.009,4c2.968,0,3.771,2.617,3.985,4.176l0.132,0.943l0.879-0.007c0.01,0,0.995-0.021,0.994-1.113 C47.995,3.514,44.485,0,40.009,0z M19.009,39V10h1v29H19.009z M22.009,10h1v29h-1V10z M25.009,10h1v29h-1V10z M28.009,10h1v29h-1V10 z M31.009,39V10h1.177c0.523,2.486,1.634,5.935,2.808,9.572c1.274,3.947,2.593,8.028,3.029,10.595 c0.563,3.318,0.051,6.304-1.37,7.985c-0.859,1.017-2.085,1.611-3.644,1.787V39H31.009z M14.99,44.985 c-4.899-0.147-8.296-1.394-10.105-3.711c-1.877-2.403-2.179-6.013-0.924-11.032c1.241-4.963,1.464-5.857,7.933-18.795 c1.447-2.895,1.65-5.221,0.604-6.914C11.596,3.076,9.83,2.24,7.238,2.045C7.484,2.016,7.735,2,7.99,2 c1.306,0,3.703,0.244,5.089,1.883c0.973,1.15,1.284,2.816,0.925,4.951c-0.398,2.367-1.671,6.311-2.902,10.123 c-1.296,4.015-2.636,8.166-3.098,10.876c-0.317,1.868-0.774,6.546,1.814,9.61c1.249,1.478,2.985,2.32,5.171,2.514V44.985z M11.347,38.152c-1.421-1.682-1.933-4.667-1.371-7.984c0.438-2.567,1.755-6.648,3.029-10.596c1.174-3.638,2.286-7.086,2.809-9.572 h1.195v29h-2v0.941C13.441,39.769,12.209,39.174,11.347,38.152z M17.009,41h14v5h-14V41z M35.502,4.533 c-1.047,1.693-0.844,4.02,0.604,6.914c6.469,12.936,6.692,13.83,7.934,18.795c1.255,5.02,0.952,8.629-0.925,11.032 c-1.81,2.317-5.206,3.563-10.105,3.711v-3.028c2.187-0.193,3.923-1.036,5.171-2.514c2.589-3.064,2.132-7.742,1.814-9.611 c-0.461-2.709-1.802-6.86-3.098-10.875c-1.23-3.812-2.504-7.756-2.901-10.123c-0.359-2.135-0.048-3.801,0.925-4.951 C36.306,2.244,38.703,2,40.009,2c0.256,0,0.506,0.016,0.753,0.045C38.169,2.24,36.402,3.076,35.502,4.533z"/> 
 <path fill="#5d6b82" id="i-2165" d="M26.689,43.088C32.488,33.072,44,12.953,44,11c0-0.24-0.02-0.46-0.07-0.65c-0.14-0.75-0.54-1.16-0.89-1.379 c-0.65-0.421-1.5-0.421-2.49-0.181c-1.189,0.28-2.58,0.91-4.09,1.61C34.83,11.15,32.97,12,32,12c-1.59,0-3.07-1.07-4.95-2.43 C24.07,7.416,20.074,4.539,13,4.072V3c0-1.654-1.346-3-3-3H7C5.346,0,4,1.346,4,3v2h2.139l5.702,38.016C10.262,43.101,9,44.4,9,46v2 h20v-2C29,44.584,28.011,43.4,26.689,43.088z M37.3,12.221c0.771-0.351,1.891-0.871,2.851-1.23c0.002-0.001,0.004-0.002,0.007-0.002 c-0.267,0.959-1.332,2.759-2.976,5.139l-0.688-3.541C36.76,12.466,37.028,12.344,37.3,12.221z M39.467,16.238 c-0.013,0.025-0.024,0.047-0.037,0.072c-0.359,0.68-0.75,1.41-1.17,2.18c-0.1,0.189-0.21,0.39-0.319,0.59 c-0.53,0.98-1.11,2.029-1.71,3.12c-0.141,0.26-0.29,0.521-0.44,0.78c0,0.01-0.01,0.029-0.021,0.049 c-0.31,0.551-0.619,1.121-0.939,1.691c-0.01,0.029-0.03,0.049-0.05,0.079c-0.46,0.83-0.931,1.671-1.41,2.521 c-0.23,0.43-0.47,0.85-0.72,1.279c-0.431,0.771-0.87,1.551-1.311,2.33c-0.05,0.09-0.1,0.18-0.149,0.26 c-0.41,0.73-0.83,1.461-1.24,2.19C28.02,36.779,26.1,40.1,24.42,43h-6.222C23.594,36.783,34.395,24.072,39.467,16.238z M34.611,13.38l0.972,4.999c-0.488,0.67-1.007,1.371-1.555,2.1l-1.274-6.556C33.324,13.824,33.947,13.633,34.611,13.38z M30.701,13.84l1.705,8.769c-0.506,0.656-1.031,1.331-1.571,2.019l-2.264-11.641C29.265,13.374,29.966,13.672,30.701,13.84z M25.88,11.189c0.12,0.088,0.236,0.171,0.354,0.256l2.965,15.246c-0.517,0.647-1.043,1.303-1.58,1.968L23.96,9.842 C24.641,10.295,25.274,10.753,25.88,11.189z M21.654,8.461l4.32,22.217c-0.523,0.639-1.051,1.281-1.588,1.93L19.5,7.479 C20.271,7.778,20.988,8.109,21.654,8.461z M17.325,6.77l5.411,27.82c-0.528,0.631-1.06,1.263-1.596,1.896L15.279,6.338 C15.999,6.455,16.682,6.6,17.325,6.77z M13.193,6.09l6.29,32.348c-0.934,1.095-1.874,2.188-2.816,3.273L11.312,6.008 C11.967,6.014,12.592,6.043,13.193,6.09z M6,3c0-0.551,0.449-1,1-1h3c0.551,0,1,0.449,1,1H6z M8.161,5h0.978l5.7,38h-0.978L8.161,5z M11,46c0-0.551,0.449-1,1-1h14c0.552,0,1,0.449,1,1H11z"/> 
 <path fill="#5d6b82" id="i-2166" d="M18,26c-2.206,0-4,1.795-4,4s1.794,4,4,4s4-1.795,4-4S20.206,26,18,26z M18,32c-1.103,0-2-0.896-2-2s0.897-2,2-2 s2,0.896,2,2S19.103,32,18,32z M8.707,33.293l6,6l-1.414,1.414l-6-6L8.707,33.293z M47.336,6.074C47.741,5.668,48,5.131,48,4.109 C48,1.459,46.579,0,44,0c-1.077,0-1.619,0.271-2.058,0.719C41.895,0.561,41.823,0.41,41.71,0.29c-0.38-0.37-1.05-0.37-1.42,0 C40.109,0.48,40,0.74,40,1c0,0.27,0.109,0.52,0.29,0.71c0.164,0.155,0.385,0.245,0.608,0.27c-0.23,0.243-0.53,0.517-0.938,0.823 c-0.04-0.191-0.116-0.371-0.25-0.513c-0.38-0.37-1.061-0.36-1.42,0C38.109,2.48,38,2.73,38,3c0,0.26,0.109,0.52,0.29,0.71 c0.094,0.089,0.205,0.16,0.325,0.21c-0.22,0.23-0.45,0.487-0.677,0.779c-0.049-0.15-0.12-0.295-0.229-0.409 c-0.37-0.37-1.05-0.37-1.42,0C36.109,4.48,36,4.74,36,5c0,0.27,0.109,0.52,0.29,0.71C36.479,5.89,36.74,6,37,6 c0.046,0,0.09-0.021,0.135-0.027c-0.189,0.391-0.328,0.787-0.366,1.168c-0.023,0.242-0.002,0.449,0.038,0.639l-12.1,12.1 C22.983,18.715,21,18,19,18c-5.213,0-6.008,3.457-6.436,5.314c-0.084,0.367-0.2,0.871-0.271,0.979 c-0.377,0.377-1.734,0.626-2.932,0.846C5.634,25.82,0,26.852,0,33.98C0,40.531,7.469,48,14.02,48c7.128,0,8.16-5.633,8.842-9.361 c0.219-1.197,0.468-2.555,0.823-2.912c0.13-0.091,0.633-0.207,1-0.291C26.543,35.008,30,34.213,30,29c0-2-0.715-3.982-1.88-5.707 l12.096-12.094c0.126,0.025,0.261,0.043,0.41,0.043c0.075,0,0.153-0.004,0.235-0.012c0.38-0.037,0.776-0.176,1.166-0.365 C42.021,10.91,42,10.954,42,11c0,0.26,0.109,0.52,0.29,0.71C42.479,11.89,42.74,12,43,12s0.52-0.11,0.71-0.29 C43.89,11.52,44,11.26,44,11s-0.11-0.52-0.29-0.71c-0.114-0.114-0.26-0.181-0.414-0.224c0.293-0.228,0.552-0.459,0.782-0.68 C44.129,9.506,44.2,9.615,44.29,9.71C44.479,9.89,44.74,10,45,10s0.52-0.11,0.71-0.29C45.89,9.52,46,9.26,46,9s-0.11-0.52-0.29-0.71 c-0.142-0.138-0.325-0.206-0.517-0.242c0.311-0.411,0.586-0.707,0.83-0.931c0.027,0.223,0.113,0.432,0.267,0.593 C46.479,7.89,46.74,8,47,8s0.52-0.11,0.71-0.29C47.89,7.52,48,7.26,48,7s-0.11-0.52-0.29-0.71 C47.604,6.187,47.474,6.119,47.336,6.074z M24.237,33.486c-0.792,0.182-1.477,0.34-1.944,0.807 c-0.818,0.818-1.074,2.217-1.398,3.986C20.232,41.898,19.481,46,14.02,46C8.516,46,2,39.484,2,33.98 c0-5.462,4.102-6.213,7.722-6.875c1.77-0.324,3.167-0.58,3.985-1.398c0.467-0.467,0.625-1.151,0.807-1.943 C14.939,21.913,15.379,20,19,20c4.458,0,9,4.542,9,9C28,32.621,26.087,33.061,24.237,33.486z M26.862,21.724 c-0.189-0.202-0.384-0.396-0.586-0.586L38,9.414L38.586,10L26.862,21.724z M40.707,9.293L40.707,9.293 C40.706,9.292,40.707,9.292,40.707,9.293L40.707,9.293z M45.601,4.912c-0.549,0.38-1.379,0.953-2.432,2.533 c-0.345,0.518-1.932,1.822-2.518,1.792l-1.889-1.889c-0.023-0.565,1.274-2.171,1.792-2.517c1.541-1.027,2.145-1.841,2.544-2.379 C43.435,2,43.435,2,44,2c1.458,0,2,0.572,2,2.109C46,4.637,46,4.637,45.601,4.912z"/> 
 <path fill="#5d6b82" id="i-2167" d="M20,23c-2.757,0-5,2.243-5,5s2.243,5,5,5s5-2.243,5-5S22.757,23,20,23z M20,31c-1.654,0-3-1.346-3-3s1.346-3,3-3 s3,1.346,3,3S21.654,31,20,31z M9.707,32.293l6,6l-1.414,1.414l-6-6L9.707,32.293z M47.336,6.074C47.742,5.667,48,5.131,48,4.109 C48,1.459,46.58,0,44,0c-1.076,0-1.619,0.271-2.057,0.719c-0.049-0.158-0.12-0.31-0.233-0.429c-0.37-0.37-1.05-0.37-1.42,0 C40.109,0.479,40,0.729,40,1c0,0.26,0.109,0.52,0.29,0.71c0.164,0.155,0.382,0.243,0.606,0.269 c-0.233,0.245-0.527,0.517-0.937,0.824c-0.04-0.189-0.116-0.372-0.25-0.513c-0.37-0.37-1.05-0.37-1.42,0C38.109,2.479,38,2.74,38,3 c0,0.27,0.109,0.52,0.29,0.7c0.095,0.095,0.204,0.169,0.325,0.221c-0.221,0.229-0.45,0.486-0.677,0.778 c-0.049-0.151-0.12-0.295-0.229-0.409c-0.38-0.37-1.04-0.37-1.42,0C36.109,4.479,36,4.74,36,5s0.109,0.52,0.29,0.71 C36.48,5.899,36.74,6,37,6c0.046,0,0.089-0.02,0.135-0.026c-0.189,0.39-0.328,0.786-0.365,1.166 c-0.024,0.243-0.002,0.449,0.037,0.64L26.198,18.388c-0.426-0.045-0.897-0.067-1.418-0.067C17.96,18.32,0,22.84,0,33 c0,8.27,6.73,15,15,15c4.59,0,8.71-3.85,11.609-10.85c2.025-4.9,3.386-11.548,2.98-15.326l10.625-10.625 c0.127,0.025,0.262,0.044,0.41,0.044c0.076,0,0.154-0.004,0.236-0.013c0.38-0.037,0.775-0.177,1.166-0.365 C42.021,10.911,42,10.953,42,11c0,0.27,0.109,0.52,0.29,0.71C42.48,11.89,42.74,12,43,12s0.52-0.11,0.71-0.29 C43.89,11.52,44,11.26,44,11s-0.11-0.521-0.29-0.71c-0.114-0.114-0.26-0.181-0.415-0.225c0.295-0.227,0.553-0.458,0.784-0.68 c0.05,0.118,0.122,0.225,0.211,0.314C44.48,9.89,44.73,10,45,10c0.26,0,0.52-0.11,0.71-0.29C45.89,9.52,46,9.26,46,9 s-0.11-0.521-0.29-0.71c-0.138-0.139-0.325-0.206-0.519-0.24c0.312-0.413,0.588-0.709,0.832-0.934 c0.027,0.219,0.114,0.433,0.267,0.594C46.48,7.89,46.74,8,47,8s0.52-0.11,0.71-0.29C47.89,7.52,48,7.26,48,7s-0.11-0.521-0.29-0.71 C47.604,6.187,47.475,6.119,47.336,6.074z M24.4,37.22C22.94,40.5,19.77,46,15,46C7.83,46,2,40.17,2,33 c0-8.021,15.356-12.449,22.255-12.669L23.586,21L27,24.414l0.668-0.668C27.559,26.971,26.629,32.222,24.4,37.22z M27,21.586 L26.414,21L38,9.414L38.586,10L27,21.586z M45.601,4.913c-0.549,0.379-1.378,0.952-2.432,2.532c-0.343,0.514-1.927,1.8-2.508,1.8 c-0.001,0-0.001,0-0.002,0l-1.903-1.903c-0.004-0.578,1.285-2.168,1.799-2.51c1.541-1.027,2.145-1.841,2.544-2.379 C43.434,2,43.434,2,44,2c1.458,0,2,0.571,2,2.109C46,4.637,46,4.637,45.601,4.913z M43.293,3.293l1.414,1.414l-3,3l-1.414-1.414 L43.293,3.293z"/> 
 <path fill="#5d6b82" id="i-2168" d="M44.944,0c-1.229,0-2.198,0.392-2.975,0.889C41.836,0.429,41.577,0,41.053,0c-1.183,0-0.462,0.796,0.236,1.387 c-0.165,0.137-0.32,0.271-0.463,0.405c-0.144-0.414-0.399-0.776-0.883-0.776c-1.191,0-0.451,0.801,0.252,1.389 c-0.119,0.12-0.244,0.245-0.374,0.375c-0.144-0.408-0.399-0.764-0.878-0.764c-1.191,0-0.451,0.801,0.252,1.389 c-0.109,0.11-0.221,0.221-0.332,0.331c-0.146-0.39-0.402-0.72-0.863-0.72c-1.173,0-0.474,0.776,0.22,1.362 c-0.122,0.121-0.241,0.239-0.356,0.354C37.716,4.344,37.461,4.016,37,4.016c-1.172,0-0.476,0.774,0.217,1.359 c-0.13,0.129-0.248,0.247-0.355,0.354C36.714,5.342,36.459,5.016,36,5.016c-1.169,0-0.479,0.771,0.213,1.356L36,6.583V7 c0,1.268-0.475,1.995-0.645,2.215L18.884,25.7C18.476,25.346,18,24.773,18,24c0-0.734,0.794-1.651,1.32-2.259 c0.576-0.666,1.074-1.241,0.812-1.966c-0.069-0.192-0.302-0.651-0.967-0.762c-4.633-0.774-5.971,2.591-6.947,5.046 c-0.517,1.302-1.004,2.53-1.818,3.141c-1.253,0.94-2.762,1.581-4.22,2.2C3.142,30.692,0,32.027,0,36c0,5.448,6.756,12,11,12 c4.86,0,6.155-3.23,7.196-5.826c0.762-1.901,1.42-3.543,3.176-4.245c4.539-1.815,5.349-4.381,5.112-5.61 C26.332,31.529,25.735,31,25,31c-0.732,0-1.187,0.321-1.519,0.556C23.145,31.794,22.854,32,22,32c-0.355,0-0.817-0.055-1.007-0.313 c-0.211-0.289-0.165-0.829-0.09-1.176l17.779-17.793l0.025-0.011c0.627-0.627,1.173-0.662,2.969-0.687l0.34-0.005 c1.192-0.019,1.504-1.337,1.898-3.006C44.111,8.172,44.576,6.208,45,6.016c1.654,0,3-1.343,3-2.992C48,1.356,46.654,0,44.944,0z M22,34c1.149,0,1.823-0.291,2.28-0.571c-0.4,0.692-1.39,1.738-3.652,2.643c-2.55,1.021-3.474,3.325-4.289,5.358 C15.316,43.983,14.507,46,11,46c-2.975,0-9-5.5-9-10c0-2.526,1.793-3.412,4.962-4.759c1.568-0.666,3.189-1.355,4.638-2.441 c1.264-0.948,1.88-2.5,2.477-4.002c0.886-2.23,1.553-3.663,3.312-3.873C16.729,21.727,16,22.789,16,24 c0,1.452,0.771,2.483,1.466,3.119L16.586,28l2.318,2.317c-0.109,0.658-0.144,1.69,0.465,2.535C19.746,33.376,20.509,34,22,34z M20,28.586L19.414,28L36,11.398l0.586,0.586L20,28.586z M44.992,4.016c-1.957,0.016-2.549,2.521-3.025,4.534 c-0.109,0.464-0.262,1.112-0.393,1.472c-1.441,0.021-2.508,0.046-3.484,0.639l-0.787-0.786c0.303-0.547,0.617-1.36,0.684-2.444 c0.698-0.693,2.535-2.519,3.758-3.746C42.492,2.934,43.424,2,44.999,2C45,2,45,2,45,2c0.542,0,1,0.469,1,1.023 C46,3.57,45.551,4.016,44.992,4.016z M14.707,30.293l3,3l-1.414,1.414l-3-3L14.707,30.293z M11.707,33.293l3,3l-1.414,1.414l-3-3 L11.707,33.293z M11.707,40.293l-1.414,1.414l-4-4l1.414-1.414L11.707,40.293z M14,41c0,0.553-0.448,1-1,1s-1-0.447-1-1s0.448-1,1-1 S14,40.447,14,41z M17,38c0,0.553-0.448,1-1,1s-1-0.447-1-1s0.448-1,1-1S17,37.447,17,38z M13,44c0,0.553-0.448,1-1,1s-1-0.447-1-1 s0.448-1,1-1S13,43.447,13,44z"/> 
 <path fill="#5d6b82" id="i-2169" d="M10.956,44c0,0.553-0.447,1-1,1c-0.552,0-1-0.447-1-1s0.448-1,1-1C10.509,43,10.956,43.447,10.956,44z M9.249,34.707l4,4 l1.414-1.414l-4-4L9.249,34.707z M8.663,35.293l-1.414,1.414l4,4l1.414-1.414L8.663,35.293z M6.663,38.293l-2.414,2.414l3,3 l2.414-2.414L6.663,38.293z M12.956,41c-0.552,0-1,0.447-1,1s0.448,1,1,1c0.553,0,1-0.447,1-1S13.509,41,12.956,41z M47.666,5.29 c0.18,0.18,0.29,0.43,0.29,0.71c0,0.55-0.45,1-1,1c-0.28,0-0.53-0.12-0.71-0.3l-0.8-0.944C45.165,6.329,44.957,7.05,44.957,8v0.632 l-0.571,0.271c-0.003,0.002-0.044,0.021-0.113,0.054l0.394,0.333c0.18,0.18,0.29,0.43,0.29,0.71c0,0.55-0.45,1-1,1 c-0.28,0-0.53-0.12-0.71-0.3l-0.744-0.882c-0.662,0.327-1.374,0.687-1.931,0.987l-22.22,23.144c0.529,0.288,1.533,0.539,3.363,0.081 l0.614-0.154l0.473,0.518c0.425,0.518,0.351,1.414,0.059,2.033c-0.509,1.08-1.947,1.865-4.662,2.543 c-0.488,0.123-0.861,1.38-1.191,2.489C16.234,44.063,15.064,48,9.956,48c-1.6,0-3.414,0-6.707-3.293S-0.044,38.092-0.044,37 c0-4.282,3.373-5.116,5.835-5.725c1.795-0.443,2.909-0.774,3.228-1.626c2.25-5.998,4.619-8.58,7.92-8.633 c0.887-0.025,1.245,0.39,1.403,0.731c0.359,0.776-0.243,1.462-0.533,1.792l-0.073,0.085c-2.415,3.019-2.71,4.056-2.482,4.782 L37.25,7.292c0.108-0.107,0.225-0.27,0.341-0.45L36.256,5.71c-0.18-0.18-0.3-0.43-0.3-0.71c0-0.55,0.45-1,1-1 c0.28,0,0.53,0.11,0.71,0.29l0.764,0.903c0.234-0.548,0.44-1.093,0.579-1.51l0.134-0.402l0.502-0.24L39.256,2.71 c-0.18-0.18-0.3-0.43-0.3-0.71c0-0.55,0.45-1,1-1c0.28,0,0.53,0.11,0.71,0.29l0.76,0.898L46,0h0.227c0.546,0,1.025,0.224,1.351,0.63 c0.679,0.849,0.443,2.196,0.355,2.59l-0.124,0.551l-0.535,0.178c-0.03,0.012-0.334,0.131-0.707,0.412L47.666,5.29z M16.95,35.409 l-0.979,1.02l-4.443-4.443l2.209-2.121c-0.946-1.678-0.901-3.08,1.661-6.488c-1.195,0.615-2.753,2.305-4.505,6.975 c-0.712,1.9-2.789,2.414-4.622,2.867C3.596,33.878,1.956,34.415,1.956,37c0,0.887,0,3.586,2.707,6.293S8.626,46,9.956,46 c3.364,0,4.217-2.023,5.134-5.11c0.528-1.779,1.028-3.461,2.623-3.859c1.081-0.271,1.814-0.529,2.311-0.754 C18.539,36.287,17.562,35.855,16.95,35.409z M38.557,10.015l-0.614-0.615L14.385,32.015l1.557,1.557L38.557,10.015z M46.041,2.197 l-5.277,2.525c-0.256,0.71-0.813,2.144-1.481,3.188l0.859,0.858c0.977-0.507,2.159-1.083,2.839-1.411 c0.227-3.091,2.075-4.498,3.058-5.033C46.04,2.282,46.041,2.239,46.041,2.197z"/> 
 <path fill="#5d6b82" id="i-2170" d="M47.686,5.29c-0.135-0.093-0.342-0.208-0.576-0.329l0.865-1.736V2.99c0-1.537-1.453-2.99-2.99-2.99H44.75l-1.748,0.872 c-0.117-0.227-0.227-0.426-0.316-0.552c-0.32-0.461-1.031-0.391-1.42,0c-0.391,0.39-0.451,1.09,0,1.41 c0.002,0.001,0.006,0.003,0.008,0.004l-1.115,0.557l-0.131,0.393c-0.004,0.009-0.096,0.283-0.277,0.711 c-0.021-0.034-0.045-0.076-0.064-0.104c-0.32-0.45-1.031-0.39-1.42,0c-0.391,0.39-0.451,1.101,0,1.42 c0.146,0.103,0.381,0.231,0.652,0.368c-0.393,0.684-0.889,1.412-1.482,2.046l-19.41,18.528C16.247,24.609,14.184,24,11.975,24 c-6.62,0-12,5.38-12,12c0,2.457,0.744,4.742,2.015,6.646l-0.335,0.447l3.227,3.227l0.447-0.336C7.232,47.256,9.518,48,11.975,48 c6.62,0,12-5.38,12-12c0-2.211-0.611-4.277-1.657-6.058l18.364-19.245c0.668-0.664,1.469-1.212,2.217-1.639 c0.135,0.27,0.264,0.506,0.367,0.651c0.32,0.45,1.029,0.39,1.42,0c0.389-0.39,0.449-1.101,0-1.42 c-0.029-0.02-0.07-0.043-0.105-0.064c0.428-0.181,0.703-0.274,0.713-0.278l0.393-0.131l0.564-1.133 c0.004,0.008,0.01,0.02,0.016,0.026c0.32,0.45,1.029,0.39,1.42,0C48.074,6.32,48.135,5.609,47.686,5.29z M5.069,43.68l-0.773-0.773 l1.788-2.384l1.369,1.369L5.069,43.68z M11.975,46c-1.795,0-3.471-0.48-4.924-1.307l3.446-2.585l-4.631-4.631l-2.584,3.446 C2.456,39.471,1.975,37.795,1.975,36c0-5.51,4.49-10,10-10s10,4.49,10,10S17.485,46,11.975,46z M21.142,28.271 c-0.44-0.521-0.922-1.003-1.443-1.442L37.955,9.391L38.574,10L21.142,28.271z M44.258,6.197c-0.803,0.31-2.65,1.106-4.242,2.412 l-0.65-0.649c1.305-1.594,2.102-3.44,2.412-4.243l3.387-1.688c0.334,0.1,0.684,0.449,0.783,0.782L44.258,6.197z M10.682,32.293l5,5 l-1.414,1.414l-5-5L10.682,32.293z"/> 
 <path fill="#5d6b82" id="i-2171" d="M48,2.057c0-1.102-0.897-1.998-2-1.998c-1.07,0-2.25,1.836-2.75,3.056l-1.542-1.82C41.527,1.112,41.276,1,41,1 c-0.553,0-1,0.447-1,1c0,0.276,0.112,0.527,0.294,0.707l1.97,1.669l-0.889,0.887l-1.667-1.969C39.527,3.112,39.276,3,39,3 c-0.553,0-1,0.447-1,1c0,0.276,0.112,0.527,0.294,0.707l1.968,1.668L39.5,7.136l-0.442-0.441l-10.633,8.942 C27.061,14.832,25.176,14.04,23,14.04c-3.26,0-4.75,2.44-5.84,4.22c-0.55,0.91-1.12,1.84-1.59,1.84c-0.08,0-0.16-0.02-0.25-0.05 c-0.54-0.18-1.04-0.04-1.34,0.33c-0.37,0.45-0.26,0.979-0.16,1.44c0.18,0.9,0.27,1.699-0.53,2.5c-1.01,1.01-1.97,1.529-2.83,1.529 c-0.77,0-1.32-0.399-1.64-0.64c-0.22-0.16-0.46-0.34-0.83-0.34l-0.53,0.01l-0.3,0.41c-0.21,0.29-0.24,0.649-0.11,1.06 c0.46,1.351,0.03,1.68-1.83,2.4c-0.4,0.16-0.8,0.32-1.17,0.5C2.44,30.061,0,31.279,0,35.02c0,4.351,4.12,8.521,4.29,8.69 C4.47,43.891,8.64,48,13,48c3.81,0,5.27-2.77,6.34-4.8c0.75-1.41,1.24-2.28,2-2.28c0.12,0,0.26,0.02,0.42,0.061 c0.13,0.029,0.24,0.049,0.35,0.049l0.66-0.02l0.28-0.55c0.29-0.58-0.06-1.06-0.24-1.319c-0.49-0.66-1.49-2.041,0.9-4.42 c0.45-0.451,0.94-0.66,1.54-0.66c0.35,0,0.67,0.069,0.95,0.119c0.27,0.061,0.49,0.09,0.649,0.09c0.551,0,0.841-0.289,0.971-0.459 c0.149-0.221,0.3-0.59,0.13-1.121c-0.17-0.52,0.149-0.85,1.8-1.84c1.79-1.08,4.25-2.56,4.25-5.82c0-2.174-0.791-4.058-1.596-5.422 L41.356,8.99l-0.441-0.44l0.757-0.757l1.62,1.913C43.473,9.888,43.724,10,44,10c0.553,0,1-0.447,1-1 c0-0.276-0.112-0.527-0.294-0.707l-1.912-1.62l0.88-0.878l1.618,1.911C45.473,7.888,45.724,8,46,8c0.553,0,1-0.447,1-1 c0-0.276-0.112-0.527-0.294-0.707l-1.812-1.536C46.132,4.268,48,3.108,48,2.057z M5.71,42.3c-0.007-0.007-0.131-0.134-0.323-0.348 l6.656-7.479l1.491,1.489l-7.564,6.58C5.812,42.398,5.714,42.305,5.71,42.3z M28.72,29.13c-1.189,0.72-2.62,1.58-2.8,2.979 c-0.21-0.029-0.43-0.049-0.67-0.049c-1.13,0-2.13,0.42-2.96,1.25c-1.94,1.939-2.54,3.859-1.81,5.729 c-1.43,0.431-2.21,1.899-2.91,3.229C16.56,44.189,15.61,46,13,46c-1.984,0-4.032-1.16-5.45-2.182l8.916-7.754l-4.509-4.503 L4.12,40.367C3.113,38.955,2,36.959,2,35.02c0-2.33,1.17-3.09,2.94-3.979c0.31-0.16,0.66-0.29,1-0.42c1.19-0.46,2.99-1.16,3.25-2.97 c0.37,0.119,0.79,0.199,1.27,0.199c1.41,0,2.84-0.709,4.25-2.109c1.28-1.29,1.32-2.7,1.18-3.66c1.39-0.18,2.2-1.5,2.97-2.77 c0.98-1.61,2-3.271,4.14-3.271c1.436,0,2.739,0.445,3.787,0.974l-8.266,6.952l5.542,5.535l6.961-8.257 C31.554,22.289,32,23.593,32,25.029C32,27.01,30.7,27.939,28.72,29.13z M23.937,26.548l-2.458-2.455l15.57-13.096L23.937,26.548z M17.707,26.318l4,3.994l-1.413,1.416l-4-3.996L17.707,26.318z"/> 
 <path fill="#5d6b82" id="i-2172" d="M34,0c-1.55,0-2,0.451-2,2c0,0.32,0.07,0.621,0.13,0.9c0.298,1.291,0.925,4.15-7.65,15.127l-0.442-0.441L23.023,18.6 l-1.125-1.088l0.812-0.82l-1.422-1.408l-2.981,3.014l1.422,1.406l0.762-0.77l1.117,1.082L20.624,21l0.801,0.803 c-0.464,0.557-0.948,1.131-1.454,1.723l-0.952-0.953l-1,1l-1.086-1.09l0.796-0.805l-1.422-1.406l-2.981,3.012l1.422,1.408 l0.779-0.787l1.079,1.082l-1,1l1.192,1.195c-0.487,0.551-0.99,1.115-1.508,1.693L14,27.586l-0.976,0.977l-1.071-1.096l0.756-0.762 l-1.419-1.41l-2.981,3l1.419,1.41l0.815-0.82l1.066,1.092L10.586,31l1.413,1.414c-0.115,0.146-0.23,0.291-0.339,0.445 c-0.45,0.48-0.9,0.971-1.37,1.471c-1.19,1.27-4.31,4.461-7.73,6.76c-0.05,0.01-0.12,0.01-0.2,0.02C1.72,41.18,0,41.381,0,42.98 C0,44.25,3.74,48,5,48c1.6,0,1.81-1.709,1.88-2.35c0.01-0.07,0.02-0.15,0.03-0.211c1.06-1.59,2.34-3.109,3.61-4.488 c1.22,3.52,4.57,6.059,8.5,6.059c2.056,0,4.006-0.699,5.6-1.975L26,46.414L29.414,43l-1.366-1.367l1.565-1.607l1.386,1.391 l3.414-3.414l-1.425-1.43l1.565-1.607l1.445,1.451l3.414-3.414l-1.492-1.496l0.789-0.805c1.46-1.461,3.29-3.291,3.31-6.682 c0.011-2.389-0.909-4.639-2.6-6.34c-0.11-0.109-0.229-0.209-0.35-0.32c2.04-1.08,3.68-1.639,4.89-1.639c0.47,0,0.81,0.08,1.14,0.15 C45.38,15.93,45.68,16,46,16c1.55,0,2-0.449,2-2C48,10.09,36.56,0,34,0z M10.04,38.541c-1.65,1.709-3.44,3.75-4.87,5.898 c-0.19,0.291-0.23,0.611-0.27,0.98c-0.02,0.09-0.03,0.25-0.06,0.391c-0.75-0.561-2.09-1.9-2.64-2.66 c0.14-0.02,0.29-0.041,0.39-0.051c0.36-0.039,0.68-0.08,0.96-0.27c2.51-1.67,4.82-3.74,6.5-5.4c-0.02,0.201-0.03,0.391-0.03,0.58 C10.02,38.189,10.04,38.359,10.04,38.541z M22.848,23.23l1.94,1.943c-0.558,0.467-1.131,0.951-1.72,1.457l-1.674-1.678 C21.898,24.361,22.383,23.787,22.848,23.23z M26.212,26.602l4.9,4.914l-1.579,1.594l-5.041-5.051 C25.078,27.557,25.651,27.07,26.212,26.602z M18.215,28.604l1.208,1.209c-0.549,0.488-1.111,0.99-1.688,1.51l-1.026-1.027 C17.227,29.719,17.729,29.154,18.215,28.604z M20.839,31.232l5.291,5.303l-1.585,1.596l-5.392-5.393 C19.723,32.223,20.285,31.721,20.839,31.232z M19.02,45.01c-3.86,0-7-3.139-7-7c0-1.518,0.489-2.979,1.398-4.178l0.71,0.711 c-0.719,1.01-1.108,2.209-1.108,3.467c0,3.311,2.69,6,6,6c1.248,0,2.445-0.387,3.468-1.107l0.705,0.705 C21.992,44.512,20.545,45.01,19.02,45.01z M15.02,38.01c0-0.719,0.203-1.404,0.562-2.014l5.456,5.457 c-0.613,0.363-1.3,0.557-2.019,0.557C16.81,42.01,15.02,40.221,15.02,38.01z M26,43.586L13.414,31L14,30.414L26.586,43L26,43.586z M26.629,40.215l-0.666-0.666l1.582-1.596l0.653,0.656L26.629,40.215z M31.001,38.586L18.432,25.988l0.585-0.586L31.587,38 L31.001,38.586z M31.571,35.152l-0.63-0.631l1.579-1.594l0.618,0.619L31.571,35.152z M36.001,33.586L23.45,21.002l0.586-0.586 L36.587,33L36.001,33.586z M29.989,23.553c1.582-1.238,3.056-2.338,4.411-3.283c0.55,0.201,1.05,0.51,1.479,0.932 c0.74,0.76,1.15,1.75,1.14,2.799c-0.02,1.561-0.869,2.43-1.729,3.301l-0.777,0.787L29.989,23.553z M40.02,24.01 C40,26.58,38.69,27.9,37.28,29.301l-0.77,0.789l-0.59-0.59l0.819-0.83c0.95-0.959,2.26-2.279,2.279-4.65 c0.011-1.59-0.6-3.09-1.72-4.219c-0.3-0.311-0.64-0.57-0.99-0.811c0.311-0.189,0.62-0.4,0.91-0.58c0.28,0.211,0.54,0.43,0.78,0.68 C39.31,20.41,40.03,22.16,40.02,24.01z M45.54,13.92c-0.38-0.09-0.89-0.199-1.58-0.199c-2.217,0-6.141,1.133-15.398,8.4 l-2.651-2.658c9.312-11.867,8.61-15.055,8.17-17.002C34.04,2.279,34,2.1,34,2c2.01,0.35,12,9.301,12,12 C45.9,14,45.73,13.961,45.54,13.92z"/> 
 <path fill="#5d6b82" id="i-2173" d="M44.999,40c-0.554,0-1.001,0.447-1.001,1c0,0.283,0.118,0.798,0.307,1.235c-0.882,0.421-3.456,1.571-6.963,2.492 c3.452-2.751,5.675-6.98,5.675-11.727c0-8.271-6.731-15-15.006-15c-4.739,0-8.965,2.214-11.717,5.655 c1.254-8.934,6.374-11.76,9.917-13.713C28.25,8.82,30.012,7.849,30.012,6c0-3.701-5.747-6-15.011-6C5.748,0,0,2.299,0,6 c0,1.805,1.518,2.78,3.275,3.91c3.476,2.235,8.729,5.613,8.729,18.091c0,12.979,6.879,17.48,10.996,19.01 c1.953,0.817,3.8,0.989,5.007,0.989v-0.002h0.001V48h0.002v-0.002c0.001,0,0.001,0.001,0.002,0.001V48c0.002,0,0.003,0,0.005,0 h0.001c8.98,0,16.607-3.686,17.447-4.105c0.009-0.004,0.014-0.013,0.021-0.018C45.96,44.436,46.654,45,47,45c0.553,0,1-0.447,1-1 S45.552,40,44.999,40z M28.011,20.001c7.172,0,13.006,5.831,13.006,13c0,2.164-0.539,4.202-1.479,5.999H36.83 c-0.302-0.847-0.969-1.513-1.815-1.814l-0.001-11.185c0-2.206-1.795-4.001-4.001-4.001c-1.201,0-2.268,0.543-3.002,1.383 c-0.734-0.84-1.801-1.382-3.001-1.382c-2.205,0-4,1.794-4.001,3.999v11.186c-0.848,0.301-1.515,0.967-1.817,1.814h-1.291 c-1.249-2.859-1.895-6.544-1.896-10.99C17.968,23.312,22.609,20.001,28.011,20.001z M31.197,39H30.83 c-0.147-0.416-0.376-0.8-0.697-1.121c-0.321-0.32-0.706-0.549-1.122-0.696V25.999c0-1.103,0.898-1.999,2.002-1.999 s2.001,0.897,2.001,2.001l0.001,11.185C32.167,37.486,31.5,38.153,31.197,39z M25.195,39h-0.367c-0.147-0.416-0.376-0.8-0.698-1.121 c-0.321-0.32-0.706-0.549-1.122-0.696V26c0-1.102,0.898-1.999,2.001-1.999c1.104,0,2.001,0.896,2.001,1.998v11.187 C26.163,37.486,25.497,38.153,25.195,39z M22.009,39.001c0.267,0,0.519,0.104,0.708,0.294c0.189,0.188,0.292,0.438,0.292,0.705 c0,0.552-0.45,1.001-1.002,1.001c-0.551,0-1-0.449-1.001-1C21.007,39.449,21.457,39.001,22.009,39.001z M28.011,39.001 c0.268,0,0.519,0.104,0.708,0.294c0.189,0.188,0.293,0.439,0.293,0.704c-0.001,0.552-0.451,1.001-1.003,1.003 c-0.551-0.001-0.998-0.451-0.998-1.003C27.011,39.449,27.459,39.001,28.011,39.001z M35.015,40c0,0.551-0.449,1-1.001,1h-0.002 c-0.551,0-0.999-0.449-0.999-1s0.449-0.999,1.002-0.999C34.566,39.001,35.015,39.449,35.015,40z M4.357,8.229C2.852,7.26,2,6.68,2,6 c0-1.939,4.557-4,13.013-4c8.443,0,12.999,2.061,12.999,4c0,0.668-1.282,1.374-2.768,2.192c-4.166,2.296-11.109,6.13-11.232,19.454 c-0.005,0.014-0.01,0.027-0.016,0.042C13.9,14.382,7.937,10.529,4.357,8.229z M28.009,46L28.009,46c-0.952,0-2.573-0.224-4.273-0.85 c-1.955-0.827-3.549-2.227-4.775-4.15h0.231c0.415,1.162,1.515,2.001,2.816,2.001c1.303,0,2.404-0.839,2.818-2.001h0.37 c0.414,1.162,1.514,2.002,2.815,2.002h0.003c1.299-0.004,2.397-0.842,2.812-2.002h0.371c0.414,1.162,1.514,2,2.816,2 c1.302,0,2.402-0.838,2.816-2h1.411c-2.382,3.037-6.077,5-10.229,5c-0.001,0-0.001,0-0.002,0S28.01,46,28.009,46z"/> 
 <path fill="#5d6b82" id="i-2174" d="M44.711,29.29l-11-11c-0.35-0.34-0.9-0.39-1.29-0.101c-0.4,0.291-0.53,0.82-0.31,1.261c0.6,1.21,0.59,2.61-0.04,4.18 c-2.021,5.04-3.07,7.96-3.07,14.12c0,1.21-1.35,1.25-1.5,1.25s-1.5-0.04-1.5-1.25V33h1v1h2v-4h-2v1h-1v-3h1v1h2v-4h-2v1h-1v-3h1v1h2 v-4h-2v1h-1v-3h1v1h2v-4h-2v1h-1v-3h1v1h2v-4h-2v1h-1V8h1v1h2V5h-2v1h-1c0,0,0,0,0-0.01c0-4.391-3.59-5.99-6-5.99 c-1.88,0-2.85,0.58-3.87,1.2C15.226,1.74,14.166,2.37,12,2.724V1.819L4.52,3.066L1.879,5.707L12,7.152V6.488 c0.409,0.055,0.816,0.092,1.22,0.092c2,0,3.55-0.689,4.68-1.189c0.6-0.271,1.17-0.531,1.5-0.531c0.08,0,0.12,0.021,0.15,0.031 c1.7,0.85,1.76,1.6,0.75,9.93c-0.61,5.01-1.53,12.59-2.3,24.109c-0.15,2.211,0.63,4.35,2.19,6.01C22.03,46.91,24.811,48,28.001,48 c6.28,0,9.28-4.561,9.99-8.84c1.189-7.17,3.59-8.16,6.01-8.16c0.4,0,0.77-0.24,0.92-0.62C45.081,30.01,44.991,29.58,44.711,29.29z M10,4.181v0.667L7.847,4.539L10,4.181z M36.011,38.84c-0.279,1.68-1.68,7.16-8.01,7.16c-2.63,0-4.891-0.859-6.351-2.42 c-1.18-1.26-1.76-2.859-1.65-4.51c0.76-11.471,1.68-19.021,2.28-24.01c1.02-8.41,1.26-10.41-1.83-11.951 c-0.32-0.159-0.67-0.25-1.05-0.25c-0.75,0-1.48,0.33-2.31,0.701c-1.11,0.489-2.41,1.06-4.05,1.01c2.05-0.42,3.16-1.08,4.11-1.66 C18.07,2.359,18.681,2,20,2c0.04,0,4,0.05,4,4v31.75c0,2.13,1.76,3.25,3.5,3.25s3.5-1.12,3.5-3.25c0-5.8,0.95-8.43,2.93-13.38 c0.33-0.83,0.53-1.64,0.601-2.431l7.35,7.351C37.951,30.45,36.671,34.891,36.011,38.84z"/> 
 <path fill="#5d6b82" id="i-2175" d="M26.964,22.04c0,0.552-0.446,1-0.999,1c-0.552,0-1-0.448-1-1s0.448-1,1-1C26.518,21.04,26.964,21.488,26.964,22.04z M22.986,24c-0.553,0-1,0.447-1,1s0.447,1,1,1c0.552,0,1-0.447,1-1S23.538,24,22.986,24z M19.969,27.04c-0.553,0-1,0.447-1,1 s0.447,1,1,1c0.553,0,0.999-0.447,0.999-1S20.521,27.04,19.969,27.04z M16.987,30c-0.553,0-1,0.447-1,1s0.447,1,1,1 c0.551,0,0.999-0.447,0.999-1S17.538,30,16.987,30z M48,2.59l-0.01,0.43C47.96,4.45,45.76,8.62,42.521,9.87l-7.658,7.659 l0.143,0.143l-0.052,0.477c-0.164,1.51-2.38,3.726-3.887,3.886l-0.475,0.051l-0.142-0.142L13.376,39.03l0.673,0.674l-0.095,0.517 c-0.202,1.105-0.892,1.346-1.395,1.521c-0.502,0.176-1.343,0.469-2.878,2.005l-0.707,0.708l-0.511-0.512L6.979,45.43 C6.869,46.7,6.309,48,4.999,48h-0.42L0,43.41V43c0-1.32,1.299-1.88,2.57-1.98l1.486-1.486L3.563,39.04l0.707-0.707 c1.517-1.517,1.811-2.392,1.988-2.913c0.174-0.514,0.436-1.291,1.646-1.377L8.36,34.01l0.609,0.609l17.079-17.082l-0.083-0.083 V17.04c0-1.607,2.391-4,3.998-4h0.414l0.084,0.083l7.671-7.673C39.382,2.16,43.551,0,44.971,0h0.409L48,2.59z M7.049,42.528 l-1.58-1.581L3.409,43H3c-0.17,0-0.359,0.02-0.54,0.05l2.479,2.479c0.031-0.18,0.061-0.369,0.061-0.539v-0.41l0.29-0.29 L7.049,42.528z M11.515,39.996L8.002,36.48c-0.223,0.576-0.638,1.412-1.632,2.539l2.624,2.626 C10.134,40.633,10.957,40.218,11.515,39.996z M29.036,20.527l-1.578-1.58L10.379,36.029l1.583,1.586L29.036,20.527z M32.816,18.311 l-3.16-3.163c-0.528,0.282-1.301,1.056-1.584,1.587l3.159,3.162C31.768,19.582,32.502,18.846,32.816,18.311z M45.91,3.33l-1.27-1.25 c-1.13,0.359-3.949,2-4.698,4.24l-0.07,0.22l-8.002,7.994l1.579,1.58l7.982-7.984l0.23-0.08C43.871,7.311,45.521,4.49,45.91,3.33z M40.956,5.04l1.998,2l0.999-1l-1.999-2L40.956,5.04z"/> 
 <path fill="#5d6b82" id="i-2176" d="M47.828,6.598C47.642,6.117,46.991,5,45.005,5c-0.905,0-1.826,0.423-2.734,1.256L17.965,28.575l-3.162-3.167 c8.229-7.414,11.334-7.424,12.572-7.424l0.589,0.006c0.403-0.002,0.766-0.246,0.92-0.619c0.153-0.373,0.068-0.801-0.217-1.087 l-7.969-7.99c-0.285-0.286-0.714-0.372-1.088-0.22c-0.373,0.154-0.618,0.517-0.62,0.92l0.003,0.33 c0.037,1.986,0.135,7.261-16.736,26.007c-0.002,0.003-0.002,0.005-0.005,0.008C1.117,36.473,0.017,37.689,0,38.995 C-0.021,40.693,2.251,42.977,3.988,43C4,43,4.01,43,4.022,43c1.36,0,2.475-1.098,3.552-2.161l12.941-11.886l1.636,1.612 l-1.817,1.668c-0.022,0.019-0.045,0.039-0.066,0.06c-0.664,0.668-1.286,0.706-1.289,0.707c-0.404,0-0.769,0.244-0.924,0.617 c-0.154,0.373-0.068,0.804,0.217,1.09l0.999,1c0.28,0.279,0.697,0.354,1.067,0.213c0.369-0.143,0.62-0.502,0.64-0.896 c0.001-0.025,0.039-0.631,0.647-1.259c0.014-0.014,0.028-0.028,0.043-0.042l23.954-21.984C47.562,9.955,48.388,8.034,47.828,6.598z M20.872,11.3l4.813,4.827c-1.845,0.357-4.908,1.613-10.154,6.012C19.399,16.539,20.544,13.305,20.872,11.3z M6.291,39.295 l-0.121,0.121C5.453,40.121,4.562,41,4.021,41c-0.002,0-0.004,0-0.006,0C3.335,40.99,1.994,39.572,2,39.021 c0.008-0.616,1.239-1.843,1.703-2.306c0.01-0.01,0.013-0.023,0.022-0.033c0.006-0.006,0.013-0.007,0.018-0.013 c0.741-0.823,1.452-1.599,2.148-2.351l2.783,2.787L6.291,39.295z M10.15,35.752l-2.892-2.896c2.261-2.394,4.277-4.408,6.071-6.093 l3.162,3.166L10.15,35.752z M23.626,29.211l-1.637-1.612l1.129-1.036l1.636,1.613L23.626,29.211z M44.27,10.266l-18.04,16.557 l-1.637-1.613L43.624,7.73C44.135,7.26,44.626,7,45.005,7c0.195,0,0.843,0.023,0.96,0.324C46.118,7.719,45.793,8.865,44.27,10.266z" /> 
 <path fill="#5d6b82" id="i-2177" d="M45.706,6.297C44.182,4.773,42.345,4,40.249,4c-2.918,0-6.267,1.606-8.957,4.297c-4.615,4.613-4.988,9.782-3.055,13.041 c-1.39,1.181-2.815,2.402-4.24,3.637c-1.425-1.23-2.848-2.457-4.238-3.635c1.94-3.26,1.561-8.43-3.051-13.04 c-2.69-2.69-6.04-4.3-8.96-4.3c-2.1,0-3.931,0.77-5.461,2.3c-1.761,1.761-2.55,4.15-2.21,6.729c0.34,2.611,1.8,5.261,4.21,7.681 c2.781,2.771,5.921,4.3,8.852,4.3c1.539,0,2.969-0.42,4.219-1.22c1.118,1.31,2.268,2.649,3.43,3.993 C13.951,33.821,7.998,39.508,7.998,41c0,1.542,1.458,3,3,3c1.475,0,7.048-5.813,13.007-12.547C29.953,38.188,35.525,44,37,44 c1.54,0,3-1.46,3-3c0-1.498-5.95-7.179-12.787-13.214c1.162-1.343,2.312-2.686,3.428-3.996c1.244,0.797,2.677,1.218,4.224,1.218 c2.93,0,6.069-1.527,8.842-4.299c2.418-2.416,3.876-5.073,4.218-7.683C48.261,10.454,47.474,8.064,45.706,6.297z M3.737,16.92 c-0.93-1.38-1.5-2.779-1.68-4.15c-0.261-1.97,0.31-3.72,1.649-5.06C4.837,6.58,6.198,6,7.748,6c1.63,0,3.46,0.65,5.189,1.8 l0.771,3.851l-4.08-1.021l1,4l-3.989-1l1.01,4.14L3.737,16.92z M17.288,21.29c-1.12,1.13-2.56,1.72-4.149,1.72 c-2.351,0-4.94-1.279-7.291-3.59l4.5,0.98L9.368,16.38l4.01,1l-1-4l3.91,0.979l-0.91-4.56C20.22,14.721,19.129,19.45,17.288,21.29z M22.464,26.311c-0.059,0.051-0.117,0.102-0.175,0.152c-0.36-0.414-0.723-0.826-1.08-1.242 C21.63,25.581,22.046,25.946,22.464,26.311z M10.907,41.992c-0.398-0.061-0.841-0.503-0.901-0.9 c0.72-1.53,8.603-8.814,16.777-15.875C19.722,33.391,12.437,41.272,10.907,41.992z M37.99,41.09c-0.061,0.4-0.5,0.84-0.9,0.9 c-1.229-0.581-6.176-5.789-11.75-12.053c0.183-0.209,0.365-0.418,0.548-0.627C32.173,34.886,37.409,39.861,37.99,41.09z M34.864,23.008c-1.6,0-3.038-0.592-4.158-1.713c-1.842-1.842-2.928-6.576,1.912-11.489l-0.91,4.551l3.917-0.979l-1,4l4.008-1.002 L37.647,20.4l4.504-0.976C39.795,21.732,37.214,23.008,34.864,23.008z M45.94,12.767c-0.179,1.37-0.751,2.775-1.676,4.155 l-3.914,0.846l1.013-4.137l-3.99,0.998l1-4l-4.083,1.021l0.771-3.854C36.793,6.654,38.617,6,40.249,6 c1.546,0,2.907,0.576,4.043,1.711C45.629,9.048,46.199,10.796,45.94,12.767z"/> 
 <path fill="#5d6b82" id="i-2178" d="M23.371,11.496c0.651-1.18,1.379-1.935,2.167-2.273c0.098,0.449,0.479,0.793,0.958,0.793c0.48,0,0.862-0.345,0.959-0.796 c0.787,0.336,1.512,1.091,2.16,2.266l15,27.979l1.762-0.945l-15.005-27.99c-0.749-1.358-1.622-2.314-2.602-2.887 c1.647-0.494,5.368-1.358,9.562-0.66c0.734,0.123,1.468-0.09,2.063-0.594c0.689-0.584,1.101-1.478,1.101-2.391 c0-1.653-1.346-2.998-3-2.998c-6.291,0-12.385,5.034-12.642,5.248c-0.227,0.19-0.358,0.471-0.358,0.768v0.121 C24.29,7.42,22.858,8.29,21.62,10.531L5.615,39.633c-0.748,1.354-1.772,3.209-0.521,5.375C6.14,46.816,8.032,47,9.498,47 c0.196,0,0.386-0.004,0.563-0.007l32.427-0.006l-0.055-2H10.56l-0.533,0.007c-1.57,0.025-2.646-0.027-3.201-0.986 c-0.652-1.131-0.22-2.031,0.541-3.408L23.371,11.496z M38.496,3c0.552,0,1,0.447,1,0.998c0,0.322-0.154,0.662-0.394,0.865 c-0.146,0.122-0.295,0.168-0.442,0.146c-1.256-0.209-2.467-0.293-3.603-0.293c-1.314,0-2.526,0.112-3.587,0.273 C33.502,3.941,36.018,3,38.496,3z M22.369,2.488l-19,34l-1.746-0.977l19-34L22.369,2.488z"/> 
 <path fill="#5d6b82" id="i-2179" d="M26.51,22.02c-0.31-2.609-0.609-4.97-0.93-7.209c0.359-0.381,0.71-0.75,1.07-1.121C30.05,10.109,33,7.02,33,4 c0-2.21-1.79-4-4-4c-1.58,0-2.95,0.641-3.971,1.84c-2.25,2.641-2.329,7.42-2.02,9.32c0.141,0.82,0.26,1.66,0.391,2.51 c-0.26,0.33-0.51,0.66-0.76,0.99c-0.851,1.119-1.701,2.22-2.48,3.311c-2.18,2.809-3.86,5.84-4.12,9.149C16.01,27.41,16,27.71,16,28 c0,5.38,5.17,9,10,9c0.01,0,0.13,0,0.34-0.02c0.2,1.619,0.43,3.34,0.67,5.149c0.18,1.37,0,2.38-0.55,3.011 c-0.021,0.01-0.04,0.029-0.05,0.049c-0.42,0.271-1.131,0.641-1.561,0.41c-0.5-0.279-0.859-1.369-0.85-2.59 c0.01-0.8-0.3-1.55-0.859-2.119C22.561,40.32,21.811,40,21,40c-1.65,0-3,1.35-3,3c0,1.16,0.51,2.311,1.43,3.221 C20.57,47.37,22.189,48,23.98,48c0.01,0,0.02,0,0.02,0c1.71,0,3.08-0.54,3.96-1.55c0.95-1.07,1.29-2.62,1.03-4.58 c-0.25-1.89-0.48-3.66-0.69-5.33C30.34,35.8,33,33.9,33,29C33,25.65,30.77,22.27,26.51,22.02z M20.84,44.811 C20.311,44.279,20,43.62,20,43c0-0.55,0.45-1,1-1c0.27,0,0.52,0.109,0.71,0.3S22,42.73,22,42.99c0,0.49,0.04,1.72,0.529,2.8 C21.87,45.6,21.29,45.26,20.84,44.811z M28.109,6.55c-0.529,1.06-1.159,2.101-1.83,3.13c0.451-3.039,1.311-4.14,1.641-4.459 c0.21-0.201,0.359-0.24,0.37-0.25C28.38,5.04,28.57,5.62,28.109,6.55z M26.55,3.13C27.2,2.37,28,2,29,2c1.1,0,2,0.9,2,2 c0,0.65-0.25,1.37-0.67,2.141c0.18-0.99,0-1.9-0.561-2.511c-0.569-0.62-1.43-0.81-2.25-0.5c-0.51,0.2-1.359,0.75-2.09,2.25 C25.689,4.52,26.04,3.73,26.55,3.13z M18,28c0-2.93,1.63-5.83,3.76-8.82c0.65-0.84,1.34-1.66,2.07-2.47 c0.23,1.74,0.46,3.56,0.689,5.521c-1.629,0.5-3.18,1.77-3.99,3.379c-0.989,1.971-0.75,4.101,0.671,5.99l2.22,2.961 C20.689,33.65,18,31.4,18,28z M25.939,35c-0.689-0.01-1.439-0.12-2.189-0.34l-0.77-3.86c0-0.01-0.33-1.81,0.56-2.899 c0.351-0.43,0.88-0.711,1.569-0.83c0.291,2.42,0.611,5.029,0.971,7.91C26.029,34.99,25.99,34.99,25.939,35z M28.029,34.42 c-0.329-2.641-0.629-5.04-0.899-7.279c1.93,0.479,3.04,2.159,3.14,3.75C30.35,32.17,29.75,33.6,28.029,34.42z M26,25 c-1.41,0-2.55,0.35-3.4,1.029C23.391,24.859,24.8,24,26,24c2.48,0,3.98,1.35,4.63,3.01C29.54,25.82,27.95,25,26,25z"/> 
 <path fill="#5d6b82" id="i-2180" d="M42.866,2.009c-0.196,0.026-4.906,0.677-13.14,3.03c-7.008,2.002-12.942,4.941-13.191,5.066l-0.555,0.275v26.214 c-0.727-0.357-1.703-0.589-3.021-0.595c-4.248,0-8.86,2.4-8.957,5.973c-0.029,1.049,0.305,1.963,0.965,2.646 c0.857,0.889,2.25,1.366,4.027,1.381h0.084l0,0c1.979,0,4.143-0.555,5.788-1.486c2.022-1.144,3.136-2.746,3.136-4.514 c0-0.133-0.008-0.275-0.021-0.423V21.846c1.58-0.805,6.628-3.266,12.295-4.885c5.812-1.66,9.875-2.463,11.723-2.786l-0.003,18.431 c-0.73-0.363-1.716-0.6-3.051-0.605c-4.234,0-8.832,2.4-8.928,5.973c-0.028,1.059,0.306,1.98,0.966,2.663 c0.86,0.891,2.2,1.35,3.983,1.364h0.084c0.001,0,0.001,0,0.001,0c1.979,0,4.147-0.555,5.797-1.485 c2.03-1.144,3.147-2.747,3.147-4.515L44,1.855L42.866,2.009z M13.881,42.773C12.523,43.541,10.705,44,9.056,44 c-1.21-0.01-2.181-0.283-2.65-0.77c-0.286-0.297-0.418-0.689-0.404-1.203C6.063,39.723,9.727,38,12.997,38 c3.005,0.014,3.005,1.355,3.005,2C16.002,41.369,14.674,42.325,13.881,42.773z M29.727,15.039c-5.051,1.442-9.529,3.484-11.746,4.57 v-7.98c1.635-0.773,6.674-3.061,12.295-4.668C36.068,5.306,40.142,4.5,42,4.175l-0.001,7.969 C40.283,12.431,36.054,13.23,29.727,15.039z M39.866,38.772C38.502,39.541,36.679,40,35.027,40c-1.191-0.01-2.146-0.277-2.606-0.754 c-0.286-0.297-0.419-0.695-0.404-1.219C32.078,35.723,35.725,34,38.981,34c3.014,0.014,3.014,1.406,3.014,2 C41.995,37.367,40.661,38.324,39.866,38.772z"/> 
 <path fill="#5d6b82" id="i-2181" d="M28.909,8.293C26.072,7.555,25,7.123,25,5.5h-2l-0.018,27.596c-0.729-0.357-1.705-0.59-3.024-0.596 c-4.247,0-8.86,2.4-8.956,5.973c-0.029,1.049,0.305,1.963,0.964,2.646c0.858,0.889,2.25,1.366,4.026,1.381h0.085h0.001 c1.979,0,4.142-0.555,5.787-1.486C23.887,39.87,25,38.268,25,36.5c0-0.132-0.008-0.273-0.02-0.42l0.013-20.152 c0.896,0.516,1.967,0.811,2.935,1.076C30.452,17.699,32,18.24,32,20.5c-0.002,2.725-1.876,6.516-1.895,6.554L31.8,28.1 c0.393-0.522,0.768-1.012,1.123-1.475C35.29,23.541,37,21.314,37,17.5C37,10.4,32.323,9.183,28.909,8.293z M16.055,40.5 c-1.21-0.01-2.181-0.283-2.65-0.77c-0.285-0.297-0.418-0.689-0.404-1.203c0.062-2.305,3.725-4.027,6.996-4.027 c2.438,0.011,2.896,0.896,2.984,1.574L22.979,36.5H23l0,0c0,1.369-1.328,2.325-2.119,2.773C19.521,40.041,17.704,40.5,16.055,40.5 L16.055,40.5z M28.458,15.076C26.001,14.4,25,13.978,25,12.5h-0.004l0.002-3.484c0.997,0.586,2.238,0.909,3.407,1.213 C31.797,11.112,35,11.946,35,17.5c0,1.657-0.386,2.94-1.086,4.222C33.969,21.307,34,20.896,34,20.5 C34,16.602,30.797,15.72,28.458,15.076z"/> 
 <path fill="#5d6b82" id="i-2182" d="M36,12c1.654,0,3-1.346,3-3c0-0.8-0.319-1.523-0.831-2.062L38.88,5.62l-1.76-0.95l-0.737,1.369C36.256,6.022,36.131,6,36,6 c-1.654,0-3,1.346-3,3c0,0.747,0.284,1.423,0.738,1.949l-1.62,3.008L29.851,0H16.149L9.014,43.84L9,48h5v-3h18v3h5v-4l-4.355-26.805 l2.826-5.249C35.644,11.978,35.818,12,36,12z M32.382,28h-5.555l4.266-7.922L32.382,28z M17.851,2h10.299l2.416,14.841L26,25.32V24 h-2v-2h2v-2h-2v-2h2v-2h-2v-2h2v-2h-2v-2h2V8h-2V6h2V4h-6v2h2v2h-2v2h2v2h-2v2h2v2h-2v2h2v2h-2v2h2v2h-2v2h2v2h-8.382L17.851,2z M25.634,26l-1.077,2H24v-2H25.634z M12,46h-1v-1h1V46z M35,46h-1v-1h1V46z M32.708,30l2.116,13H11.176l2.117-13H32.708z M35,9 c0-0.551,0.448-1,1-1s1,0.449,1,1s-0.448,1-1,1S35,9.551,35,9z"/> 
 <path fill="#5d6b82" id="i-2183" d="M35,4c0-0.553,0.447-1,1-1s1,0.447,1,1s-0.447,1-1,1S35,4.553,35,4z M24,14c1.103,0,2-0.897,2-2s-0.897-2-2-2s-2,0.897-2,2 S22.897,14,24,14z M36,43c0.553,0,1-0.447,1-1s-0.447-1-1-1s-1,0.447-1,1S35.447,43,36,43z M17,12c0-3.859,3.141-7,7-7s7,3.141,7,7 s-3.141,7-7,7S17,15.859,17,12z M19,12c0,2.757,2.243,5,5,5s5-2.243,5-5s-2.243-5-5-5S19,9.243,19,12z M12,43c0.553,0,1-0.447,1-1 s-0.447-1-1-1s-1,0.447-1,1S11.447,43,12,43z M20,31c0-2.206,1.794-4,4-4s4,1.794,4,4s-1.794,4-4,4S20,33.206,20,31z M22,31 c0,1.103,0.897,2,2,2s2-0.897,2-2s-0.897-2-2-2S22,29.897,22,31z M40,0v46h-2v2h-5v-2H15v2h-5v-2H8V0H40z M38,2H10v42h28V2z M12,5 c0.553,0,1-0.447,1-1s-0.447-1-1-1s-1,0.447-1,1S11.447,5,12,5z M14,31c0-5.514,4.486-10,10-10s10,4.486,10,10s-4.486,10-10,10 S14,36.514,14,31z M16,31c0,4.411,3.589,8,8,8s8-3.589,8-8s-3.589-8-8-8S16,26.589,16,31z"/> 
 <path fill="#5d6b82" id="i-2184" d="M8,37h32c4.411,0,8-3.589,8-8s-3.589-8-8-8H8c-1.104,0-2-0.896-2-2s0.896-2,2-2h32c4.411,0,8-3.589,8-8s-3.589-8-8-8h-3.696 c-0.821-0.486-2.247-0.816-3.116-0.982L18,0v1H6.586L6.293,1.293c-0.572,0.572-2.014,0.572-2.586,0L3.136,0.722L2.457,1.16 C0.826,2.215,0,3.17,0,4s0.826,1.785,2.457,2.84l0.679,0.438l0.571-0.571c0.572-0.572,2.014-0.572,2.586,0L6.586,7H18v1h15.095 l0.093-0.018C34.057,7.816,35.481,7.486,36.304,7H40c1.103,0,2,0.896,2,2s-0.897,2-2,2H8c-4.411,0-8,3.589-8,8s3.589,8,8,8h32 c1.103,0,2,0.896,2,2s-0.897,2-2,2H8c-4.411,0-8,3.589-8,8s3.589,8,8,8h3.695c0.822,0.486,2.248,0.816,3.117,0.982L30,48v-1h11.414 l0.293-0.293c0.572-0.572,2.014-0.572,2.586,0l0.571,0.571l0.679-0.438C47.173,45.785,48,44.83,48,44s-0.827-1.785-2.457-2.84 l-0.679-0.438l-0.571,0.571c-0.572,0.572-2.014,0.572-2.586,0L41.414,41H30v-1H15l-0.188,0.018 c-0.869,0.166-2.295,0.496-3.117,0.982H8c-1.104,0-2-0.896-2-2S6.896,37,8,37z M2.982,4.768C2.615,4.49,2.285,4.204,2.103,4 c0.183-0.203,0.513-0.49,0.881-0.768C4.269,3.971,6.202,3.877,7.369,3H8v2H7.369C6.202,4.123,4.269,4.027,2.982,4.768z M10,5V3h8v2 H10z M20,5V3V2h11v4H20V5z M35.316,5.271C35.081,5.451,34.027,5.771,33,5.979V2.02c1.027,0.21,2.079,0.527,2.287,0.682 C35.616,3.102,35.616,4.898,35.316,5.271z M45.017,43.232c0.369,0.277,0.698,0.563,0.881,0.768c-0.183,0.203-0.513,0.49-0.881,0.768 c-1.285-0.738-3.22-0.645-4.386,0.232H40v-2h0.631C41.796,43.877,43.731,43.971,45.017,43.232z M38,43v2h-8v-2H38z M28,43v2v1H17v-4 h11V43z M12.684,42.729c0.236-0.18,1.289-0.499,2.316-0.708v3.96c-1.026-0.209-2.077-0.527-2.287-0.682 C12.385,44.898,12.385,43.102,12.684,42.729z M8,43h2.568c-0.108,0.648-0.108,1.352,0,2H8c-3.309,0-6-2.691-6-6s2.691-6,6-6h32 c2.206,0,4-1.795,4-4s-1.794-4-4-4H8c-3.309,0-6-2.691-6-6s2.691-6,6-6h32c2.206,0,4-1.795,4-4s-1.794-4-4-4h-2.568 c0.108-0.648,0.108-1.352,0-2H40c3.309,0,6,2.691,6,6s-2.691,6-6,6H8c-2.205,0-4,1.795-4,4s1.795,4,4,4h32c3.309,0,6,2.691,6,6 s-2.691,6-6,6H8c-2.205,0-4,1.795-4,4S5.795,43,8,43z"/> 
 <g> <path fill="#5d6b82" id="i-2185" d="M38,0c-5.445,0-9.887,4.387-9.99,9.809l-0.895,2.682L1.62,41.039L3.585,43l-3.292,3.293l1.414,1.414L5,44.413l1.95,1.946 l13.441-11.588C20.562,34.906,20.768,35,21,35c0.21,0,0.4-0.061,0.561-0.17c0.049-0.041,0.1-0.08,0.149-0.121L23,33.674V48h2 V32.068l2-1.604V48h2V28.859l1.52-1.221l0.091-0.189c0.292-0.58,0.395-1.204,0.386-1.822l5.495-4.737l3.079-1.026 C44.336,19.105,48,14.975,48,10C48,4.49,43.51,0,38,0z M28.9,26.379l-6.7,5.381c-0.181-0.99-0.58-1.9-0.9-2.52l7.12-5.711 C28.81,24.39,29.18,25.549,28.9,26.379z M30.532,23.392c-0.381-1.015-0.872-1.781-0.982-1.942l-0.6-0.91l-10.29,8.25l0.51,0.76 c0.299,0.46,0.917,1.635,1.069,2.711L7.05,43.64l-2.67-2.681L28.432,14.02c3.053,0.192,6.266,2.395,6.54,5.547L30.532,23.392z M36.873,18.654c-0.684-3.571-4.035-6.035-7.52-6.553l0.356-1.07c3.827,0.332,7.821,3.288,8.252,7.26L36.873,18.654z M39.897,17.767c-0.669-4.478-4.881-8.237-9.836-8.715c0.176-1.483,0.761-2.841,1.637-3.963c0.278-0.067,0.457-0.102,0.466-0.103 c2.519-0.42,5.479,0.566,7.922,2.637c2.437,2.063,3.897,4.802,3.914,7.332c-0.006,0.092-0.002,0.196,0.006,0.32 C42.939,16.487,41.514,17.371,39.897,17.767z M41.379,6.096c-2.157-1.826-4.693-2.932-7.128-3.158C35.37,2.34,36.646,2,38,2 c4.41,0,8,3.59,8,8c0,0.846-0.139,1.66-0.384,2.426C44.963,10.13,43.484,7.881,41.379,6.096z"/> </g> 
 <path fill="#5d6b82" id="i-2186" d="M48,10c0-5.514-4.486-10-10-10c-5.449,0-9.887,4.383-9.99,9.809l-0.894,2.681L1.625,41.039L3.586,43l-3.293,3.293 l1.414,1.414L5,44.414l1.949,1.949l29.458-25.395c-0.01-0.014-0.014-0.029-0.023-0.043l3.185-1.062C44.338,19.107,48,14.979,48,10z M39.896,17.76c-0.672-4.471-4.878-8.227-9.826-8.707c0.176-1.485,0.762-2.844,1.639-3.966c0.271-0.066,0.446-0.099,0.455-0.101 c2.519-0.419,5.479,0.566,7.922,2.637c2.437,2.064,3.897,4.803,3.914,7.333c-0.006,0.091-0.002,0.192,0.005,0.313 C42.938,16.479,41.514,17.365,39.896,17.76z M46,10c0,0.85-0.141,1.666-0.388,2.434c-0.647-2.299-2.124-4.55-4.233-6.337 c-2.158-1.827-4.694-2.933-7.13-3.159C35.368,2.34,36.645,2,38,2C42.411,2,46,5.589,46,10z M7.051,43.637l-2.676-2.676 l24.061-26.947c3.05,0.194,6.268,2.397,6.545,5.545L7.051,43.637z M29.354,12.102l0.356-1.07c3.827,0.332,7.821,3.289,8.252,7.261 l-1.089,0.362C36.189,15.084,32.838,12.619,29.354,12.102z"/> 
 <path fill="#5d6b82" id="i-2187" d="M24,0C10.767,0,0,10.767,0,24s10.767,24,24,24s24-10.767,24-24S37.233,0,24,0z M24,46C11.869,46,2,36.131,2,24 S11.869,2,24,2s22,9.869,22,22S36.131,46,24,46z M24,13c-6.065,0-11,4.935-11,11s4.935,11,11,11s11-4.935,11-11S30.065,13,24,13z M24,33c-4.963,0-9-4.037-9-9s4.037-9,9-9s9,4.037,9,9S28.963,33,24,33z M24,36.333v2c-7.903,0-14.333-6.43-14.333-14.333h2 C11.667,30.801,17.199,36.333,24,36.333z M38.333,24h-2c0-6.801-5.532-12.334-12.333-12.334v-2 C31.903,9.666,38.333,16.097,38.333,24z M24,39.667v2c-9.741,0-17.667-7.926-17.667-17.667h2C8.333,32.639,15.361,39.667,24,39.667z M41.667,24h-2c0-8.639-7.028-15.666-15.667-15.666v-2C33.741,6.334,41.667,14.259,41.667,24z M24,43v2C12.421,45,3,35.579,3,24h2 C5,34.477,13.523,43,24,43z M45,24h-2c0-10.477-8.523-19-19-19V3C35.579,3,45,12.421,45,24z M24,21c-1.654,0-3,1.346-3,3 s1.346,3,3,3s3-1.346,3-3S25.654,21,24,21z M24,25c-0.552,0-1-0.448-1-1s0.448-1,1-1s1,0.448,1,1S24.552,25,24,25z"/> 
 <path fill="#5d6b82" id="i-2188" d="M11.25,21c-1.654,0-3,1.346-3,3s1.346,3,3,3s3-1.346,3-3S12.904,21,11.25,21z M11.25,25c-0.552,0-1-0.448-1-1s0.448-1,1-1 s1,0.448,1,1S11.802,25,11.25,25z M36.75,21c-1.654,0-3,1.346-3,3s1.346,3,3,3s3-1.346,3-3S38.404,21,36.75,21z M36.75,25 c-0.552,0-1-0.448-1-1s0.448-1,1-1s1,0.448,1,1S37.302,25,36.75,25z M16,21v6h16v-6H16z M27.087,23C27.032,23.29,27,23.62,27,24 s0.032,0.71,0.087,1h-5.174C21.968,24.71,22,24.38,22,24s-0.032-0.71-0.087-1H27.087z M18,23h1.824C19.882,23.095,20,23.365,20,24 s-0.118,0.905-0.176,1H18V23z M30,25h-0.824C29.118,24.905,29,24.635,29,24s0.118-0.905,0.176-1H30V25z M5,13c0,0.553-0.447,1-1,1 s-1-0.447-1-1s0.447-1,1-1S5,12.447,5,13z M45,13c0,0.553-0.447,1-1,1s-1-0.447-1-1s0.447-1,1-1S45,12.447,45,13z M5,35 c0,0.553-0.447,1-1,1s-1-0.447-1-1s0.447-1,1-1S5,34.447,5,35z M45,35c0,0.553-0.447,1-1,1s-1-0.447-1-1s0.447-1,1-1 S45,34.447,45,35z M18,34c0,0.553-0.447,1-1,1h-1c-0.553,0-1-0.447-1-1s0.447-1,1-1h1C17.553,33,18,33.447,18,34z M33,34 c0,0.553-0.447,1-1,1h-1c-0.553,0-1-0.447-1-1s0.447-1,1-1h1C32.553,33,33,33.447,33,34z M45,9H3c-1.654,0-3,1.346-3,3v24 c0,1.654,1.346,3,3,3h42c1.654,0,3-1.346,3-3V12C48,10.346,46.654,9,45,9z M11.517,37l2.143-5h20.682l2.143,5H11.517z M46,36 c0,0.552-0.448,1-1,1h-6.341l-3-7H12.341l-3,7H3c-0.552,0-1-0.448-1-1V12c0-0.552,0.448-1,1-1h42c0.552,0,1,0.448,1,1V36z"/> 
 <path fill="#5d6b82" id="i-2190" d="M24,4C13.738,4,6,9.159,6,16c0,8.897,12.28,28,18,28c6.056,0,18-18.579,18-28C42,9.159,34.262,4,24,4z M24,42 C19.784,42,8,24.186,8,16c0-5.701,6.879-10,16-10s16,4.299,16,10C40,25.288,28.087,42,24,42z M34.102,23.577l1.812,0.844 C34.855,26.698,29.35,38.059,25,38.059v-2C26.585,36.059,30.515,31.287,34.102,23.577z M38,17h-2c0-4.056-5.047-7-12-7V8 C32.243,8,38,11.701,38,17z"/> 
 <path fill="#5d6b82" id="i-2192" d="M40,18.611l-2-0.391V15h-8v1.654l-2-0.391V13h-8v1.698l-2-0.392V11h-8v1.742l-2-0.392V9H0v39h8v-4.351l2-0.392V46h8v-4.307 l2-0.392V44h8v-4.264l2-0.391V42h8v-4.221l2-0.391V40h8V17h-8V18.611z M40,20.649v0.962l-2-0.391v-0.963L40,20.649z M40,23.649 v8.701l-2,0.392v-9.484L40,23.649z M30,18.693v0.961l-2-0.391v-0.962L30,18.693z M30,21.693v12.613l-2,0.392V21.302L30,21.693z M20,16.736v0.962l-2-0.392v-0.961L20,16.736z M20,19.736v16.527l-2,0.391V19.346L20,19.736z M10,14.779v0.963l-2-0.392v-0.962 L10,14.779z M10,17.779v20.441l-2,0.391V17.389L10,17.779z M6,46H2V11h4V46z M8,41.611v-0.962l2-0.392v0.963L8,41.611z M16,44h-4V13 h4V44z M18,39.654v-0.961l2-0.392v0.962L18,39.654z M26,42h-4V15h4V42z M28,37.698v-0.962l2-0.391v0.961L28,37.698z M36,40h-4V17h4 V40z M38,35.742v-0.963l2-0.391v0.962L38,35.742z M42,19h4v19h-4V19z M3,42c0-0.553,0.447-1,1-1s1,0.447,1,1s-0.447,1-1,1 S3,42.553,3,42z M13,40c0-0.553,0.447-1,1-1s1,0.447,1,1s-0.447,1-1,1S13,40.553,13,40z M23,38c0-0.553,0.447-1,1-1s1,0.447,1,1 s-0.447,1-1,1S23,38.553,23,38z M33,36c0-0.553,0.447-1,1-1s1,0.447,1,1s-0.447,1-1,1S33,36.553,33,36z M45,34c0,0.553-0.447,1-1,1 s-1-0.447-1-1s0.447-1,1-1S45,33.447,45,34z M3,14c0-0.553,0.447-1,1-1s1,0.447,1,1s-0.447,1-1,1S3,14.553,3,14z M13,16 c0-0.553,0.447-1,1-1s1,0.447,1,1s-0.447,1-1,1S13,16.553,13,16z M23,18c0-0.553,0.447-1,1-1s1,0.447,1,1s-0.447,1-1,1 S23,18.553,23,18z M33,20c0-0.553,0.447-1,1-1s1,0.447,1,1s-0.447,1-1,1S33,20.553,33,20z M45,22c0,0.553-0.447,1-1,1s-1-0.447-1-1 s0.447-1,1-1S45,21.447,45,22z M45,5c-1.302,0-2.401,0.838-2.815,2H10v2h32.185c0.414,1.162,1.514,2,2.815,2c1.654,0,3-1.346,3-3 S46.654,5,45,5z M45,9c-0.552,0-1-0.449-1-1s0.448-1,1-1s1,0.449,1,1S45.552,9,45,9z M15.816,2C15.401,0.838,14.302,0,13,0 c-1.654,0-3,1.346-3,3s1.346,3,3,3c1.302,0,2.401-0.838,2.816-2H48V2H15.816z M13,4c-0.551,0-1-0.449-1-1s0.449-1,1-1s1,0.449,1,1 S13.551,4,13,4z"/> 
 <path fill="#5d6b82" id="i-2193" d="M14.501,15c0-1.93-1.57-3.5-3.501-3.5S7.499,13.07,7.499,15s1.57,3.5,3.501,3.5S14.501,16.93,14.501,15z M9.499,15 c0-0.827,0.673-1.5,1.501-1.5s1.501,0.673,1.501,1.5S11.828,16.5,11,16.5S9.499,15.827,9.499,15z M9.372,10.755L8.683,7.154 C9.418,6.937,10.2,6.818,11,6.818s1.582,0.118,2.317,0.336l-0.689,3.601c-0.51-0.19-1.055-0.3-1.628-0.3S9.882,10.564,9.372,10.755z M14.937,17.273c0.286-0.496,0.465-1.023,0.553-1.561l3.464,1.203c-0.179,0.746-0.468,1.482-0.868,2.175 c-0.399,0.692-0.893,1.312-1.449,1.839l-2.773-2.397C14.282,18.187,14.649,17.769,14.937,17.273z M8.138,18.532L5.364,20.93 c-0.557-0.527-1.05-1.146-1.449-1.839c-0.4-0.692-0.689-1.429-0.868-2.175l3.464-1.203c0.088,0.537,0.267,1.064,0.553,1.561 C7.351,17.769,7.718,18.187,8.138,18.532z M48,15c0-6.065-4.935-11-11-11c-4.264,0-7.961,2.443-9.785,6h-6.43 C18.961,6.443,15.264,4,11,4C4.935,4,0,8.935,0,15c0,4.265,2.443,7.961,6,9.786V44h36V24.786C45.557,22.961,48,19.265,48,15z M2,15 c0-4.963,4.037-9,9-9s9,4.037,9,9s-4.037,9-9,9S2,19.963,2,15z M40,42H8V25.573C8.955,25.845,9.959,26,11,26c6.065,0,11-4.935,11-11 c0-1.041-0.155-2.045-0.427-3h4.854C26.155,12.955,26,13.959,26,15c0,6.065,4.935,11,11,11c1.041,0,2.045-0.155,3-0.427V42z M37,24 c-4.963,0-9-4.037-9-9s4.037-9,9-9s9,4.037,9,9S41.963,24,37,24z M37,11.5c-1.93,0-3.5,1.57-3.5,3.5s1.57,3.5,3.5,3.5 s3.5-1.57,3.5-3.5S38.93,11.5,37,11.5z M37,16.5c-0.827,0-1.5-0.673-1.5-1.5s0.673-1.5,1.5-1.5s1.5,0.673,1.5,1.5 S37.827,16.5,37,16.5z M38.627,19.245l0.691,3.601C38.582,23.063,37.8,23.182,37,23.182s-1.582-0.118-2.318-0.336l0.691-3.601 c0.509,0.19,1.055,0.3,1.627,0.3S38.118,19.436,38.627,19.245z M44.953,13.084l-3.463,1.203c-0.09-0.537-0.268-1.064-0.554-1.561 c-0.286-0.495-0.653-0.913-1.073-1.259l2.771-2.397c0.558,0.527,1.051,1.146,1.451,1.839C44.485,11.602,44.774,12.338,44.953,13.084 z M33.063,12.727c-0.286,0.496-0.464,1.023-0.554,1.561l-3.463-1.203c0.179-0.746,0.468-1.482,0.867-2.175 c0.4-0.692,0.894-1.312,1.451-1.839l2.771,2.397C33.717,11.813,33.35,12.231,33.063,12.727z M36,33h2v2h-2v5h-2v-5h-2v-2h2v-4h2V33z M29,31h2v2h-2v7h-2v-7h-2v-2h2v-2h2V31z M10,40h12V29H10V40z M12,31h8v7h-2.151c-0.125-0.304-0.326-0.563-0.575-0.771L18,33 l-2.024,3.761c-0.823,0.01-1.528,0.519-1.824,1.239H12V31z"/> 

</defs>
<use x="0" y="0" xlink:href="#i-2153" /><use x="48" y="0" xlink:href="#i-2154" /><use x="96" y="0" xlink:href="#i-2155" /><use x="144" y="0" xlink:href="#i-2156" /><use x="192" y="0" xlink:href="#i-2157" /><use x="0" y="48" xlink:href="#i-2158" /><use x="48" y="48" xlink:href="#i-2159" /><use x="96" y="48" xlink:href="#i-2160" /><use x="144" y="48" xlink:href="#i-2161" /><use x="192" y="48" xlink:href="#i-2162" /><use x="0" y="96" xlink:href="#i-2163" /><use x="48" y="96" xlink:href="#i-2164" /><use x="96" y="96" xlink:href="#i-2165" /><use x="144" y="96" xlink:href="#i-2166" /><use x="192" y="96" xlink:href="#i-2167" /><use x="0" y="144" xlink:href="#i-2168" /><use x="48" y="144" xlink:href="#i-2169" /><use x="96" y="144" xlink:href="#i-2170" /><use x="144" y="144" xlink:href="#i-2171" /><use x="192" y="144" xlink:href="#i-2172" /><use x="0" y="192" xlink:href="#i-2173" /><use x="48" y="192" xlink:href="#i-2174" /><use x="96" y="192" xlink:href="#i-2175" /><use x="144" y="192" xlink:href="#i-2176" /><use x="192" y="192" xlink:href="#i-2177" /><use x="0" y="240" xlink:href="#i-2178" /><use x="48" y="240" xlink:href="#i-2179" /><use x="96" y="240" xlink:href="#i-2180" /><use x="144" y="240" xlink:href="#i-2181" /><use x="192" y="240" xlink:href="#i-2182" /><use x="0" y="288" xlink:href="#i-2183" /><use x="48" y="288" xlink:href="#i-2184" /><use x="96" y="288" xlink:href="#i-2185" /><use x="144" y="288" xlink:href="#i-2186" /><use x="192" y="288" xlink:href="#i-2187" /><use x="0" y="336" xlink:href="#i-2188" /><use x="48" y="336" xlink:href="#i-2190" /><use x="96" y="336" xlink:href="#i-2192" /><use x="144" y="336" xlink:href="#i-2193" />
</svg>